<?xml version="1.0" encoding="UTF-8"?>
<!DOCTYPE svg PUBLIC "-//W3C//DTD SVG 1.1//EN" "http://www.w3.org/Graphics/SVG/1.1/DTD/svg11.dtd">
<!-- Creator: CorelDRAW 2018 -->
<svg xmlns="http://www.w3.org/2000/svg" xml:space="preserve" width="210mm" height="297mm" version="1.1" style="shape-rendering:geometricPrecision; text-rendering:geometricPrecision; image-rendering:optimizeQuality; fill-rule:evenodd; clip-rule:evenodd"
viewBox="0 0 21000 29700"
 xmlns:xlink="http://www.w3.org/1999/xlink">
 <defs>
  <style type="text/css">
   <![CDATA[
    .str0 {stroke:#F26538;stroke-width:7.62;stroke-miterlimit:22.9256}
    .fil6 {fill:#FEFEFE}
    .fil0 {fill:#2B2A29}
    .fil1 {fill:#FFED00;fill-rule:nonzero}
    .fil5 {fill:#E5097F;fill-rule:nonzero}
    .fil2 {fill:#E31E24;fill-rule:nonzero}
    .fil4 {fill:#00A0E3;fill-rule:nonzero}
    .fil3 {fill:#009846;fill-rule:nonzero}
   ]]>
  </style>
 </defs>
 <g id="Слой_x0020_1">
  <metadata id="CorelCorpID_0Corel-Layer"/>
  <path class="fil0 str0" d="M7446.66 2833.09l1749.45 -0.59c206.19,-0.07 374.87,126.37 374.94,281.04l0.92 1937.09c0.07,154.67 -168.49,281.22 -374.69,281.29l-1749.44 0.59c-206.2,0.07 -374.88,-126.37 -374.95,-281.04l-0.91 -1937.09c-0.08,-154.67 168.48,-281.22 374.68,-281.29z"/>
  <path class="fil1" d="M7586.64 5049.59l0 88.02 -20.99 0 0 -22.05 -21.7 0 0 -22.05 -21.72 0 0 -21.87 -21.67 0 0 -22.05 -22.4 0 0 132.29 22.4 0 0 -88.02 20.99 0 0 22.05 21.7 0 0 22.05 21.72 0 0 21.87 21.67 0 0 22.05 22.46 0 0 -132.29 -22.46 0zm196.64 22.22l0 -22.22 -130.88 0 0 132.29 130.88 0 0 -22.22 -108.48 0 0 -43.75 86.79 0 0 -22.4 -86.79 0 0 -21.7 108.48 0zm152.55 21.7l0 -21.87 -21.7 0 0 -22.05 -87.49 0 0 132.29 87.49 0 0 -22.05 21.7 0 0 -21.87 21.69 0 0 -44.45 -21.69 0zm-0.71 44.1l-21.7 0 0 22.05 -64.38 0 0 -87.85 64.38 0 0 22.05 21.7 0 0 43.75zm174.95 -65.97l0 -22.05 -87.49 0 0 22.05 -21.7 0 0 88.19 21.7 0 0 22.05 87.49 0 0 -22.05 21.69 0 0 -88.19 -21.69 0zm-0.71 88.02l-86.08 0 0 -87.85 86.08 0 0 87.85zm174.95 -88.02l0 -22.05 -109.19 0 0 132.29 22.4 0 0 -43.92 86.79 0 0 -22.05 21.69 0 0 -44.27 -21.69 0zm-0.71 43.92l-86.08 0 0 -43.75 86.08 0 0 43.75zm196.64 -21.7l0 -22.22 -21.69 0 0 -22.05 -87.49 0 0 22.05 -21.7 0 0 88.19 21.7 0 0 22.05 87.49 0 0 -22.05 21.69 0 0 -22.22 -22.4 0 0 22.05 -86.08 0 0 -87.85 86.08 0 0 22.05 22.4 0zm86.75 43.75l0 44.27 44.1 0 0 -44.27 -44.1 0zm261.73 -43.75l0 -22.22 -21.69 0 0 -22.05 -87.49 0 0 22.05 -21.7 0 0 88.19 21.7 0 0 22.05 87.49 0 0 -22.05 21.69 0 0 -22.22 -22.4 0 0 22.05 -86.08 0 0 -87.85 86.08 0 0 22.05 22.4 0zm152.55 -22.22l0 -22.05 -87.49 0 0 22.05 -21.7 0 0 88.19 21.7 0 0 22.05 87.49 0 0 -22.05 21.69 0 0 -88.19 -21.69 0zm-0.71 88.02l-86.08 0 0 -87.85 86.08 0 0 87.85zm174.24 -110.07l0 22.05 -21.7 0 0 21.87 -42.68 0 0 -21.87 -21.7 0 0 -22.05 -22.4 0 0 132.29 22.4 0 0 -88.02 20.99 0 0 22.05 44.1 0 0 -22.05 20.99 0 0 88.02 22.46 0 0 -132.29 -22.46 0z"/>
  <g id="_674385048">
   <path class="fil2" d="M7548.04 2946.22c20.89,7 31.39,15.8 31.39,26.29 3.1,0 5.3,1.9 6.4,5.6l-1.1 5.3c2.5,0 4.69,1.8 6.39,5.49l0 3 -54.77 64.67 0 1.5 1.2 1.4c-9.8,5.7 -21.99,18.59 -36.58,38.68 -1.8,0 -12.2,10.6 -31.39,31.69l1.5 1.4 0 2.7c0,1.5 -3.5,3.39 -10.6,5.49l-8.99 11.2 1.1 1.4 0 1.2c-26.49,33.78 -43.88,54.07 -52.08,60.87 0,2.6 -2.6,6.3 -7.89,11.19 0,4.1 -7.4,11.9 -22.29,23.39 -2.5,6.8 -12.5,20.59 -29.89,41.28 0,2 -5.6,9.8 -16.99,23.49l-5.2 9.9 1.4 0c179.02,-95.86 274.67,-143.74 286.97,-143.74l1.5 0c2.89,0 5.99,6.4 9.09,19.3 0,13.49 -12.59,28.68 -37.78,45.67 -9.4,6.5 -17.29,9.7 -23.69,9.7 -1.6,5.8 -17.19,15.89 -46.88,30.09 -0.6,2.19 -14.09,9.59 -40.38,22.29 0,6.29 -8.7,11.79 -26.09,16.69l0 -1.5c-81.26,54.27 -135.23,81.46 -161.92,81.46 -44.58,-3.7 -66.77,-9.3 -66.77,-16.69l-1.2 -5.3 0 -1.4c5.1,-22.89 33.78,-66.57 86.06,-131.24 46.68,-64.17 82.76,-111.15 108.35,-140.83l53.57 -62.07 -1.1 0c-86.65,44.08 -138.53,66.17 -155.52,66.17l-15.5 0c-22.29,0 -35.38,-8.3 -39.28,-24.89l0 -6.7c6.3,-5.3 46.28,-22.89 120.05,-52.77l174.82 -81.37 4.09 0z"/>
   <path class="fil1" d="M7947.86 2947.02l9.4 0c2.7,0 4.1,2.3 4.1,6.8l9.29 0c14.09,10.3 22.59,17.49 25.49,21.39l-1.4 8.2 4.1 10.49c-14.5,25.19 -52.08,75.77 -112.75,151.73l-22.89 25.49 116.85 120.94 5.29 16.09c0,31.19 -2.69,46.88 -7.89,46.88 -7.3,0 -10.9,1.3 -10.9,4.1l-1.4 1.1 2.6 12.29 -1.2 1.2 -2.6 0 -142.33 -139.33 -1.5 0c-54.37,76.66 -81.66,129.34 -81.66,158.13 -3.5,7.19 -8.5,10.79 -14.89,10.79l-12 0c-18.19,0 -38.28,-10.3 -60.37,-30.79l0 -4.09c6.3,-34.69 42.98,-99.16 110.15,-193.21l0 -2.7c-56.48,-50.68 -84.66,-78.47 -84.66,-83.16l0 -2.6 2.6 -2.9 6.79 0 0 -1.2 -13.49 -18.79 1.5 -1.4 -1.5 -1.5 0 -2.6 6.7 -6.8 4.09 1.5c8.4,-7.99 14.7,-11.99 18.8,-11.99 12.69,6 39.48,27.49 80.46,64.47l20.29 16.09 144.93 -174.62zm245.09 202.11l0 1.2 3.5 -1.2c36.28,0 55.77,2.7 58.57,8.19l0 3.5c0,3.9 -0.8,5.9 -2.4,5.9l1.2 1.2 0 1.1 -2.3 3.5 1.1 3.6 -1.1 1.1 -1.2 0 1.2 1.19 0 2.3 -2.4 2.4 1.2 1.2 0 2.3c-3.1,7 -7,10.5 -11.69,10.5l-1.2 1.2 -2.4 0 -4.6 -4.7 -3.6 1.2 -2.3 -2.3 -1.2 0 1.2 1.1 0 2.4 -1.2 0 -1.1 -1.2 -8.19 2.3 -1.2 -5.8 -9.4 0 -4.7 -1.2 -4.69 1.2 -3.5 0 -1.2 -1.2 -1.1 1.2 -7.1 0 -4.6 -1.2 -9.39 2.4 0 -1.2 -18.79 2.3 0 -1.1 -1.1 1.1 -5.9 -1.1 -18.79 1.1 -3.5 -1.1 -1.1 1.1 0 1.2 -1.2 -1.2 -12.89 0 -4.7 1.2 -1.2 -1.2 -1.1 0 -5.9 1.2 -1.19 -1.2 -1.1 0 -1.2 1.2 -1.2 0c-5.4,0 -8.2,-1.2 -8.2,-3.5l-2.3 0 -5.9 1.2 0 -1.2 1.2 -1.2 0 -1.2 -4.69 0 0 -2.3 3.49 0 0 -1.2 -3.49 -1.1 -5.9 1.1 -3.5 0 -2.3 -2.3 3.5 -1.2 0 -1.2 -5.9 0 0 -1.1c0,-2.19 2.8,-3.69 8.2,-4.69 0,-2 -1.5,-3.1 -4.6,-3.5l-5.9 1.1c0,-1.5 -1.2,-2.3 -3.49,-2.3l-1.2 -1.2 0 -1.1c42.18,-11.79 89.05,-17.59 140.53,-17.59l1.2 0 5.9 -1.2z"/>
   <path class="fil3" d="M8739.39 2949.42c19.29,23.99 28.99,45.18 28.99,63.57 0,14.8 -30.89,28.09 -92.56,39.78 -108.95,33.99 -190.51,61.77 -244.78,83.46l-5.3 30.79c114.94,-31.48 177.81,-47.18 188.61,-47.18 8.4,0 14.39,7.3 18.09,21.99l0 10.8 -7.3 9.09 3.5 7.3c0,12.89 -59.27,38.28 -177.71,76.16 -33.79,10.7 -50.68,20.99 -50.68,30.79l-3.8 9 3.8 0 311.85 -83.47 3.8 0c10.8,0 16.09,7.4 16.09,21.99l0 7c0,4.5 -3.59,11.2 -10.79,19.99l1.8 5.5c0,7.8 -65.37,30.18 -195.91,67.07 -17.99,12.09 -30.69,18.19 -38.08,18.19l-1.8 0 -1.7 -1.8c-18.39,9.8 -59.47,23.69 -123.34,41.58 -2.9,16.99 -6.5,25.49 -10.8,25.49l-7.29 0 -7.4 -2 -5.5 2c-5.9,0 -15.59,-5.4 -28.98,-16.39 -12.1,0 -18.2,-2.3 -18.2,-7l27.19 -112.45 -1.7 0c-17.39,-9.19 -30.08,-18.99 -38.08,-29.28l0 -5.3c0,-14.99 19.89,-27.69 59.77,-38.08 15.79,-77.67 26.09,-122.45 30.99,-134.34 6.69,-19.79 11.39,-29.99 14.39,-30.79 3.7,1.2 5.5,4.8 5.5,10.8l1.8 0c0,-18.09 6.09,-27.19 18.19,-27.19l1.7 0 9.09 2c5.5,-31.59 10.9,-47.38 16.4,-47.38l3.49 0c12.1,2.5 18.2,8.6 18.2,18.09l-7.3 47.18 2 0c87.26,-32.58 185.21,-61.57 293.76,-86.96z"/>
   <path class="fil4" d="M9020.46 3110.45c24.79,11.59 42.88,25.88 54.18,43.08l2.4 18.99c0,5.7 -27.29,53.57 -81.76,143.53 -19.7,37.68 -37.49,65.67 -53.28,84.06 -3.1,2.1 -6,3.2 -8.8,3.2l-10.79 0c-27.39,-4.7 -51.98,-12.79 -73.77,-24.29 -25.78,-13.29 -45.97,-39.78 -60.67,-79.36 -10.89,-31.09 -16.39,-55.68 -16.39,-73.77l0 -21.99c0,-23.59 3.4,-37.18 10.3,-40.68l0.79 0c13.9,4.8 36.79,19.99 68.87,45.38 10.5,5.6 15.8,10.3 15.8,13.99l0 7.1c0,29.69 4.99,65.27 14.89,106.85 4.7,-1 19.39,-30.08 43.98,-87.26 44.48,-92.55 75.96,-138.83 94.25,-138.83z"/>
   <path class="fil5" d="M9317.13 3123.64c6.7,2.7 13.49,13.79 20.49,33.09 27.79,6.29 47.78,15.49 60.07,27.78 9.4,10.6 14.1,21.59 14.1,33.19 2.29,0 6.59,14.69 12.89,44.18l7.9 28.38c0.9,3.1 1.39,10 1.39,20.49l0 4.1c0,33.59 -41.28,60.77 -123.84,81.46 -13.29,2.5 -29.68,4.8 -49.17,7 -48.38,0 -83.37,-21.59 -104.86,-64.67 -20.09,-22.49 -30.18,-44.38 -30.18,-65.67l0 -16.69c0.6,-8.2 7.7,-20.79 21.39,-37.78 5.9,0 9.79,-1.3 11.69,-4.1l8.8 4.1c45.88,-53.68 81.16,-80.47 105.75,-80.47l0.9 0 0 -1.8 -15.89 0 0 -1.49c9.39,-2.7 28.98,-6.4 58.57,-11.1zm-64.67 14.39l0.6 0 1.7 1.4 -1.7 1.5 -10.9 0 0 -1.5 10.3 -1.4zm-64.97 64.67l0 3.2c11.49,-10.69 19.39,-18.89 23.69,-24.59l-0.6 0 -23.09 21.39zm75.16 4.7l-6.39 -2.3c0,4.6 -2.1,7 -6.4,7l-2.4 0c0,3.5 -1.3,5.8 -3.8,7l-0.9 0 -3.19 -2.3c-35.09,36.28 -54.88,60.57 -59.18,72.86 -1,0 -1.4,1.3 -1.4,3.8l0 6.5c13.8,12.49 33.09,18.69 57.68,18.69l2.3 0c39.48,0 79.66,-13.29 120.64,-40.08 12.09,-14.3 18.19,-25.29 18.19,-33.09l-2.4 -2.6 0 -2.39 2.4 -2.9 0 -0.9c0,-6.8 -9.99,-14.3 -29.88,-22.29l-7 2.4c-8.4,-11 -21.59,-16.4 -39.58,-16.4l-3.2 0c-10.4,0 -22.19,2.3 -35.49,7z"/>
  </g>
  <g id="_674384040">
   <path class="fil6" d="M8581.76 3762.22l0 -64.66 193.96 0 0 64.66 -64.64 0 0 64.66 -193.98 0 0 -64.66 64.66 0zm-258.63 0l64.66 0 0 64.66 -193.96 0 0 -64.66 -64.66 0 0 -64.66 193.96 0 0 64.66zm-323.28 -64.66l0 193.98 64.66 0 0 64.65 129.32 0 0 64.66 129.3 0 0 64.66 258.63 0 0 -64.66 129.32 0 0 -64.66 129.3 0 0 -64.65 64.66 0 0 -193.98 -64.66 0 0.38 -258.64 -65.02 0 0 64.66 -64.66 0.02 0 64.66 -64.66 0 0 64.66 -64.66 0 0 -64.66 -258.63 0 0 64.66 -64.66 0 0 -64.66 -64.64 0 0 -64.66 -64.64 -0.02 -0.02 -64.46 -64.66 0 0 258.44 -64.66 0z"/>
   <polygon class="fil6" points="8323.13,4279.47 8323.13,4473.45 8258.47,4473.45 8258.47,4538.1 8193.83,4538.1 8193.83,4667.42 8258.47,4667.42 8258.47,4732.08 8129.17,4732.08 8129.17,4796.72 8064.51,4796.72 8064.51,4861.38 7999.85,4861.38 7999.85,4926.04 8905.06,4926.04 8905.06,4861.38 8840.4,4861.38 8840.38,4796.72 8775.72,4796.72 8775.72,4732.08 8646.42,4732.08 8646.42,4667.42 8711.08,4667.42 8711.08,4538.1 8646.42,4538.1 8646.42,4473.45 8581.76,4473.45 8581.76,4279.47 8517.1,4279.47 8517.1,4150.17 8387.79,4150.17 8387.79,4279.47 "/>
   <path class="fil6" d="M7611.92 3568.26l0 64.66 -64.66 0 0 129.3 -64.66 0 0 129.32 64.66 0 0 129.31 64.66 0 0 64.66 129.3 0 0 64.66 129.32 0 0 64.66 129.31 0 0 -64.66 -64.66 0 0 -64.66 -64.65 0 0 -64.66 -64.66 0 0 -64.66 -64.66 0 0 -129.31 64.66 0 0 -64.66 64.66 0 0 -193.96 -64.66 0 0 -64.66 -129.32 0 0 64.66 -64.64 0zm452.59 646.57l-64.66 0 0 129.3 64.66 0 0 -129.3zm64.66 193.96l0 -64.66 -64.66 0 0 64.66 64.66 0z"/>
   <polygon class="fil6" points="8129.17,4538.1 8129.17,4473.45 8064.51,4473.45 8064.51,4538.1 "/>
  </g>
  <path class="fil0 str0" d="M4946.66 5333.09l1749.45 -0.59c206.19,-0.07 374.87,126.37 374.94,281.04l0.92 1937.09c0.07,154.67 -168.49,281.22 -374.69,281.29l-1749.44 0.59c-206.2,0.07 -374.88,-126.37 -374.95,-281.04l-0.91 -1937.09c-0.08,-154.67 168.48,-281.22 374.68,-281.29z"/>
  <path class="fil1" d="M5086.64 7549.59l0 88.02 -20.99 0 0 -22.05 -21.7 0 0 -22.05 -21.72 0 0 -21.87 -21.67 0 0 -22.05 -22.4 0 0 132.29 22.4 0 0 -88.02 20.99 0 0 22.05 21.7 0 0 22.05 21.72 0 0 21.87 21.67 0 0 22.05 22.46 0 0 -132.29 -22.46 0zm196.64 22.22l0 -22.22 -130.88 0 0 132.29 130.88 0 0 -22.22 -108.48 0 0 -43.75 86.79 0 0 -22.4 -86.79 0 0 -21.7 108.48 0zm152.55 21.7l0 -21.87 -21.7 0 0 -22.05 -87.49 0 0 132.29 87.49 0 0 -22.05 21.7 0 0 -21.87 21.69 0 0 -44.45 -21.69 0zm-0.71 44.1l-21.7 0 0 22.05 -64.38 0 0 -87.85 64.38 0 0 22.05 21.7 0 0 43.75zm174.95 -65.97l0 -22.05 -87.49 0 0 22.05 -21.7 0 0 88.19 21.7 0 0 22.05 87.49 0 0 -22.05 21.69 0 0 -88.19 -21.69 0zm-0.71 88.02l-86.08 0 0 -87.85 86.08 0 0 87.85zm174.95 -88.02l0 -22.05 -109.19 0 0 132.29 22.4 0 0 -43.92 86.79 0 0 -22.05 21.69 0 0 -44.27 -21.69 0zm-0.71 43.92l-86.08 0 0 -43.75 86.08 0 0 43.75zm196.64 -21.7l0 -22.22 -21.69 0 0 -22.05 -87.49 0 0 22.05 -21.7 0 0 88.19 21.7 0 0 22.05 87.49 0 0 -22.05 21.69 0 0 -22.22 -22.4 0 0 22.05 -86.08 0 0 -87.85 86.08 0 0 22.05 22.4 0zm86.75 43.75l0 44.27 44.1 0 0 -44.27 -44.1 0zm261.73 -43.75l0 -22.22 -21.69 0 0 -22.05 -87.49 0 0 22.05 -21.7 0 0 88.19 21.7 0 0 22.05 87.49 0 0 -22.05 21.69 0 0 -22.22 -22.4 0 0 22.05 -86.08 0 0 -87.85 86.08 0 0 22.05 22.4 0zm152.55 -22.22l0 -22.05 -87.49 0 0 22.05 -21.7 0 0 88.19 21.7 0 0 22.05 87.49 0 0 -22.05 21.69 0 0 -88.19 -21.69 0zm-0.71 88.02l-86.08 0 0 -87.85 86.08 0 0 87.85zm174.24 -110.07l0 22.05 -21.7 0 0 21.87 -42.68 0 0 -21.87 -21.7 0 0 -22.05 -22.4 0 0 132.29 22.4 0 0 -88.02 20.99 0 0 22.05 44.1 0 0 -22.05 20.99 0 0 88.02 22.46 0 0 -132.29 -22.46 0z"/>
  <g id="_674378616">
   <path class="fil2" d="M4806.53 5878.77l21.94 -21.87 -3.74 -3.74 -18.2 3.74 3.74 -3.74 -10.73 -3.31 -7.48 3.31 18.21 -14.46 -7.48 -3.32 -6.99 3.32 -3.74 -3.32 -7.05 3.32 10.79 -7.06 -14.46 -3.74 10.72 -3.74 7.48 -17.77 -14.53 -3.74 -7.41 3.74 3.74 -3.74 -7.48 -3.74 14.46 -10.73 7.48 -10.79 169.9 -195.79 -64.91 -7.06 -36.41 7.06 7.48 0 3.32 -3.74 -17.78 -3.32 -43.4 10.73 -28.99 -10.73 -7.41 3.32 0 -7.06 -7.06 0 -7.41 3.74 0 -3.74 7.41 -3.74 -3.67 -3.67 6.99 -3.31 -10.73 -3.74 -3.74 3.74 11.15 -3.74 0 -10.73 -11.15 -3.74c5.01,-4.93 9.88,-8.6 14.68,-10.93 4.87,-2.4 10.87,-3.53 17.99,-3.53 7.2,0 13.2,-1.27 17.99,-3.74 4.8,-2.47 10.94,-3.74 18.42,-3.74l0 -10.72 -7.48 0 -32.67 7.41 11.22 0c19.26,-4.94 39.72,-9.18 61.38,-12.77 21.59,-3.6 42.05,-7.84 61.39,-12.63 19.26,-4.8 39.79,-6.07 61.59,-3.74 21.73,2.32 43.39,1.2 64.91,-3.46l-140.97 -3.74 177.31 -7.06 0 3.32 -3.67 7.48 3.67 10.72 32.66 0 0 3.74 -7.4 10.73 14.46 3.74 0 3.67 -10.72 32.24 10.72 0 0 3.74c-4.66,9.66 -10.65,19.33 -17.99,29 -7.34,9.73 -13.97,18.76 -20.04,27.23 -6.07,8.47 -13.33,16.93 -21.73,25.54 -8.4,8.61 -16.16,17.78 -23.35,27.45l-7.41 0 -10.8 25.19 -64.91 68.58 32.25 3.66 101.31 -10.72 14.47 3.32 11.14 -3.32 -7.4 0 -3.74 3.32 3.74 3.74 -14.47 3.66 10.73 7.06 11.14 -3.32 0 3.32 -14.46 3.67 35.98 3.74 10.73 -3.74 -3.32 0 -18.13 7.48 14.46 3.31 -21.94 7.41 25.61 3.74 7.06 -3.74 -3.74 0 -28.93 10.73 11.15 3.74 14.46 -3.74 -18.13 3.74 0 10.72 6.98 0 14.47 -3.74 -10.73 0 -3.74 3.74 14.47 3.74 -21.45 7.05 18.13 3.74 7.06 -3.74 -3.74 0 -21.45 7.41 3.67 3.74 -18.13 7.06 6.98 3.74 -10.72 3.74 14.46 7.05 10.72 -3.74 -6.98 0c-19.33,7.41 -39.86,11.72 -61.6,12.84 -21.8,1.06 -43.53,2.9 -65.12,5.37 -21.66,2.47 -43.88,3.67 -66.81,3.67 -22.86,0 -45.16,0 -66.96,0.07l-25.19 -3.74 -36.4 7.4zm18.2 -7.76l-3.74 -3.67 -3.67 3.67 3.67 3.74 3.74 -3.74zm3.74 -3.67l-3.74 -3.31 -3.74 3.31 7.48 0zm57.85 0l-21.94 -3.31 0 10.72 123.26 0 3.25 -3.74 -104.57 -3.67zm-50.87 -3.31l-3.67 -3.74 -3.31 3.74 3.31 3.31 3.67 -3.31zm28.93 -3.74l-3.67 -3.74 -3.31 3.74 3.31 3.74 3.67 -3.74zm152.19 0l-7.48 -3.74 -3.67 3.74 7.41 3.74 3.74 -3.74zm-119.52 -3.74l-10.73 -3.67 -3.74 3.67 10.8 3.74 3.67 -3.74zm148.45 0l-7.48 -3.67 -3.67 3.67 7.41 3.74 3.74 -3.74zm-177.38 -3.67l-3.74 -3.32 -3.67 3.32 3.67 3.67 3.74 -3.67zm151.76 0l-7.05 -3.32 -3.74 3.32 7.48 3.67 3.31 -3.67zm86.79 0l-6.99 -3.32 -3.74 3.32 7.41 3.67 3.32 -3.67zm-57.86 -3.32l-7.05 -3.73 -3.74 3.73 7.48 3.32 3.31 -3.32zm61.6 -3.73l-7.06 -3.74 -3.67 3.74 6.99 3.73 3.74 -3.73zm-293.09 -3.74l-3.32 -3.74 -3.73 3.74 3.73 3.74 3.32 -3.74zm-17.78 -14.47l-3.74 -3.74 -3.74 3.74 3.74 3.74 3.74 -3.74zm0 -6.98l-3.74 -3.74 -3.74 3.74 3.74 3.24 3.74 -3.24zm-11.22 -21.95l-3.31 -3.73 -3.67 3.73 3.67 3.74 3.31 -3.74zm7.48 -7.05l-3.74 -3.67 -3.74 3.67 3.74 3.32 3.74 -3.32zm14.47 0l-3.74 -3.67 -3.74 3.67 3.74 3.32 3.74 -3.32zm104.98 0l-3.74 -3.67 -3.67 3.67 3.67 3.32 3.74 -3.32zm-108.72 -7.41l-3.74 -3.74 -3.25 3.74 3.25 3.74 3.74 -3.74zm322.08 -3.74l-18.2 -3.31 -3.74 3.31 18.2 3.74 3.74 -3.74zm-303.88 -10.72l-3.74 -3.74 -3.67 3.74 3.67 3.74 3.74 -3.74zm119.45 0l-14.47 -3.74 -3.66 3.74 14.46 3.74 3.67 -3.74zm54.18 0l-47.13 -3.74 -3.74 3.74 47.14 3.74 3.73 -3.74zm-169.89 -3.74l-3.74 -3.32 -3.74 3.32 7.48 0zm198.82 0l-18.2 -3.32 -3.67 3.32 18.13 3.74 3.74 -3.74zm61.6 -3.32l-50.87 -3.74 -3.67 3.74 50.8 3.32 3.74 -3.32zm-249.7 -3.74l0 -7.41 -3.74 -3.31 -6.98 7.05 10.72 3.67zm115.78 -3.67l148.38 -173.63 -7.41 -3.74 -79.37 94.26 -7.48 0 -6.99 18.2 -61.59 64.91 10.72 3.67 3.74 -3.67zm-108.72 -3.74l-3.32 -3.31 -3.74 3.31 3.74 3.74 3.32 -3.74zm3.67 -3.31l-3.67 -3.74 -3.32 3.74 6.99 0zm0 -7.41l-3.67 -3.74 -3.32 3.74 3.32 3.67 3.67 -3.67zm3.74 -3.74l7.05 -10.72 -3.31 -3.74 -11.15 14.46 7.41 0zm10.72 -14.46l-3.67 -3.32 -3.31 3.32 3.31 3.74 3.67 -3.74zm3.74 -3.32l-3.74 -3.74 -3.67 3.74 7.41 0zm3.74 -3.74l-3.74 -3.74 -3.74 3.74 7.48 0zm3.32 -3.74l-3.32 -3.67 -3.74 3.67 7.06 0zm3.74 -3.67l7.4 -10.79 -3.74 -3.67 -10.72 14.46 7.06 0zm43.39 -7.05l-3.74 -3.74 -3.32 3.74 3.32 3.74 3.74 -3.74zm3.74 -3.74l-3.74 -3.67 -3.74 3.67 7.48 0zm-36.41 -3.67l-3.32 -3.32 -3.74 3.32 3.74 3.67 3.32 -3.67zm3.74 -3.32l-3.74 -3.74 -3.32 3.74 7.06 0zm3.67 -3.74l-3.67 -3.74 -3.74 3.74 7.41 0zm3.74 -3.74l-3.74 -3.66 -3.67 3.66 7.41 0zm3.31 -3.66l-3.31 -3.32 -3.74 3.32 7.05 0zm3.74 -3.32l-3.74 -3.74 -3.31 3.74 7.05 0zm3.67 -3.74l7.06 -10.72 -3.32 -3.74 -11.15 14.46 7.41 0zm10.8 -14.46l-3.74 -3.74 -3.32 3.74 3.32 3.74 3.74 -3.74zm3.74 -3.74l-3.74 -3.74 -3.74 3.74 7.48 0zm3.66 -3.74l-3.66 -3.25 -3.74 3.25 7.4 0zm3.32 -3.25l7.48 -11.22 -3.74 -3.31 -10.72 14.53 6.98 0zm101.32 -7.48l-3.32 -3.74 -3.74 3.74 3.74 3.74 3.32 -3.74zm-10.8 -3.74l-3.67 -3.31 -3.31 3.31 3.31 3.74 3.67 -3.74zm14.47 0.21l-3.67 -3.31 -3.32 3.31 6.99 0zm-93.84 -3.52l-3.67 -3.67 -3.74 3.67 3.74 3.31 3.67 -3.31zm83.11 0l-3.74 -3.67 -3.67 3.67 7.41 0zm3.74 -3.67l-3.74 -3.74 -3.74 3.74 7.48 0zm-83.54 -3.74l-6.98 -3.74 -3.74 3.74 7.41 3.74 3.31 -3.74zm3.74 -3.74l-3.74 -3.32 -3.31 3.32 7.05 0zm10.73 0l0 -6.99 11.22 -18.2 -3.74 -3.74 -18.21 25.61 10.73 3.32zm47.13 -21.45l-3.67 -3.74 -3.32 3.74 3.32 3.67 3.67 -3.67zm-28.93 -3.74l-3.74 -3.74 -3.24 3.74 3.24 3.74 3.74 -3.74zm32.67 0l-3.74 -3.74 -3.67 3.74 7.41 0zm-28.93 -3.74l-3.74 -3.31 -3.74 3.31 7.48 0zm32.67 0l-3.74 -3.31 -3.74 3.31 7.48 0zm-28.93 -3.31l-3.74 -3.67 -3.74 3.67 7.48 0zm3.25 -3.67l-3.25 -3.74 -3.74 3.74 6.99 0zm-173.57 -3.74l-3.32 -3.74 -3.73 3.74 3.73 3.74 3.32 -3.74zm-21.52 -7.06l-3.74 -3.74 -3.74 3.74 3.74 3.32 3.74 -3.32zm93.84 0l-7.06 -3.74 -3.66 3.74 7.4 3.32 3.32 -3.32zm202.56 0l-3.31 -3.74 -3.74 3.74 3.74 3.32 3.31 -3.32zm-180.69 -3.74l-7.41 -3.67 -3.31 3.67 7.05 3.74 3.67 -3.74zm-36.33 -3.67l-3.32 -3.74 -3.74 3.74 3.74 3.67 3.32 -3.67zm220.76 0l-3.74 -3.74 -3.31 3.74 3.31 3.67 3.74 -3.67zm7.41 -14.46l-3.67 -3.74 -3.74 3.74 3.74 3.67 3.67 -3.67zm-325.75 -7.06l-7.06 -3.74 -3.67 3.74 6.99 3.32 3.74 -3.32zm7.41 -3.66l-7.41 -3.74 -3.74 3.74 11.15 0zm321.66 -10.8l-6.99 -3.74 -3.74 3.74 7.41 3.32 3.32 -3.32zm0 -11.15l-3.32 -3.31 -3.67 3.31 3.67 3.74 3.32 -3.74zm-253.01 -7.05l-14.47 -3.74 -3.74 3.74 14.47 3.74 3.74 -3.74zm18.2 -3.74l-7.48 -3.67 -3.67 3.67 7.41 3.74 3.74 -3.74zm231.49 0l-18.2 -3.67 -3.67 3.67 18.2 3.74 3.67 -3.74zm-173.64 -3.67l-43.39 -3.32 -3.74 3.32 43.47 3.67 3.66 -3.67zm176.96 -3.32l-17.78 -3.74 -3.74 3.74 18.2 3.32 3.32 -3.32zm-50.45 -18.2l-3.67 -3.74 -3.74 3.74 3.74 3.74 3.67 -3.74zm3.74 -7.41l-3.74 -3.31 -3.67 3.31 3.67 3.67 3.74 -3.67z"/>
   <path class="fil1" d="M5480.82 5875.6c-4.45,-2.19 -8.75,-3.88 -13.06,-5.01 -4.3,-1.06 -7.47,-3.74 -9.73,-8.04 -2.19,-4.24 -5.43,-6.92 -9.67,-8.05 -4.3,-1.13 -7.55,-3.74 -9.73,-7.83l3.31 -3.31 -106.68 -93.84c-6.35,4.37 -12.77,9.8 -19.19,16.3 -6.49,6.49 -12.42,12.91 -17.78,19.26 -5.36,6.28 -10.86,12.7 -16.37,19.19 -5.5,6.49 -9.24,13.05 -11.14,19.61l-3.32 -3.24 -19.4 35.49 -3.32 -19.41 -6.63 16.16 -2.89 0 0 -6.21 2.89 -3.31 -9.53 -6.64 3.32 3.32 3.32 -6.63 -6.64 -6.21 -12.77 6.21 -9.95 19.47 0 -6.21 9.95 -16.58 -9.95 -2.89 -3.31 2.89 -6.21 -2.89 -6.56 9.52 -3.32 -9.52 -2.89 9.52 0 -6.63 2.89 -9.45 -2.89 -6.63 2.89 -9.53 -9.52 0 0 9.53 0 -6.21c2.18,-4.45 4.3,-8.75 6.42,-13.06 2.04,-4.23 4.72,-8.53 8.04,-12.84 3.32,-4.23 5.5,-9.17 6.63,-14.67 1.06,-5.51 2.61,-10.3 4.52,-14.47l-2.89 -3.31 -19.41 35.56 0 -6.56c4.1,-10.8 11.08,-21.03 20.89,-30.63 9.73,-9.66 18.34,-19.89 25.82,-30.62 7.41,-10.79 17.07,-20.53 28.93,-29.21 11.85,-8.67 21.09,-18.41 27.73,-29.14l-64.49 -71.19 0 -6.2 -6.63 0 0 -6.64 -12.84 -6.56 2.89 -3.31 -12.77 -9.53 0 -6.63 -6.21 0 0 -6.14 -13.27 -6.56 6.64 6.56 3.31 -6.56 -9.95 -12.77 6.64 6.14 9.52 -9.46 -9.52 -12.7 6.63 3.32 2.89 -3.32 -6.21 -9.95 3.32 9.95 9.52 0 0 -6.63 3.25 3.32 3.32 -6.64 -3.32 -3.31 3.32 -2.89 -3.32 -3.25 22.79 12.77 0 -6.63 12.77 9.95 3.32 -6.64 2.89 6.64 6.63 -3.32 12.84 6.63 0 -6.63 -6.21 -6.63 25.61 19.47 0 6.63 9.95 0 0 6.57 9.46 0 0 6.2 9.94 3.32 19.41 19.4 -3.32 3.32 32.25 38.87 55.03 -54.96 -3.32 -3.31 -3.31 3.31 77.75 -71.12 3.31 3.32 6.14 -6.63 -9.45 9.52 6.14 3.32 9.94 -9.53 -3.31 3.32 9.52 2.89 9.95 -6.21 6.56 3.32 9.53 -9.95 -3.32 3.32 3.32 3.31 -9.53 12.84 2.9 3.32 13.26 -9.95 -13.26 19.4 3.31 3.32 16.16 -12.77 -9.53 9.45 6.21 3.32 9.95 -9.52 -12.84 19.47 6.21 2.89 9.88 -9.52 -16.09 16.15 12.84 9.46 6.56 -6.21c-11,10.79 -19.68,21.52 -26.03,32.24 -6.35,10.8 -14.4,21.52 -24.2,32.25 -9.74,10.79 -19.48,21.02 -29.14,30.83 -9.6,9.74 -18.7,20.04 -27.24,30.76l-22.79 19.4 126.09 151.77 -9.88 3.24 -6.21 22.79 -6.63 2.89 6.63 26.04 -3.32 0 3.32 -12.84 -19.4 -3.32 -3.32 3.32 6.56 16.16 -9.87 0 9.87 0 0 -9.95 -6.56 -6.21 -3.31 6.21 -9.53 0 -3.32 -3.32 -6.63 9.95 -9.45 0zm-6.63 -6.63l-3.32 -3.32 -3.32 3.32 3.32 3.31 3.32 -3.31zm16.08 -3.32l-3.31 -2.89 -2.83 2.89 2.83 3.32 3.31 -3.32zm-22.72 -2.89l-2.89 -3.32 -3.32 3.32 3.32 2.89 2.89 -2.89zm9.95 0l-6.63 -6.63 -3.32 3.31 9.95 3.32zm22.72 0l-3.32 -3.32 -3.31 3.32 3.31 2.89 3.32 -2.89zm9.53 -3.32l-3.32 -3.31 -3.32 3.31 3.32 3.32 3.32 -3.32zm16.08 -3.31l-6.21 -3.25 -3.24 3.25 6.14 3.31 3.31 -3.31zm-58.28 -3.25l-6.21 -3.32 -3.31 3.32 6.63 3.25 2.89 -3.25zm-18.98 -3.32l-3.31 -2.89 -3.32 2.89 3.32 3.32 3.31 -3.32zm6.14 -6.2l-6.14 -3.32 -3.31 3.32 6.21 3.31 3.24 -3.31zm-213.29 -6.64l-3.31 -3.31 -2.89 3.31 2.89 3.32 3.31 -3.32zm9.95 0l-3.31 -3.31 -3.32 3.31 3.32 3.32 3.31 -3.32zm197.2 0l-19.47 -16.08 -3.32 3.24 19.48 16.16 3.31 -3.32zm83.89 0l-3.31 -3.31 -3.32 3.31 3.32 3.32 3.31 -3.32zm-277.77 -6.63l0 -2.89 -3.32 -3.32 -3.31 6.21 3.31 3.32 3.32 -3.32zm281.09 0l0 -2.89 -3.32 -3.32 -3.31 6.21 3.31 3.32 3.32 -3.32zm-342.69 -2.89l-3.31 -3.32 -3.32 3.32 3.32 2.89 3.31 -2.89zm45.02 0l-2.89 -3.32 -3.32 3.32 3.32 2.89 2.89 -2.89zm287.72 -6.56l-3.31 -3.32 -2.9 3.32 2.9 3.24 3.31 -3.24zm-100.05 -3.32l-3.31 -3.31 -3.25 3.31 3.25 3.32 3.31 -3.32zm112.89 -3.31l-2.89 -2.9 -3.32 2.9 3.32 3.31 2.89 -3.31zm6.63 0l0 -2.9 -6.63 -6.63 -2.89 6.63 9.52 2.9zm-271.63 -2.9l-2.89 -3.31 -6.64 9.52 3.32 3.32 6.21 -9.53zm142.24 0l-2.9 -3.31 -3.31 3.31 3.31 2.9 2.9 -2.9zm-138.93 -3.31l-3.31 -3.32 -2.89 3.32 6.2 0zm-9.52 -3.32l-3.32 -3.32 -3.31 3.32 3.31 3.32 3.32 -3.32zm142.24 0l-3.32 -3.32 -3.31 3.32 3.31 3.32 3.32 -3.32zm119.45 0l-3.32 -3.32 -3.31 3.32 3.31 3.32 3.32 -3.32zm-342.69 -3.32l-2.89 -3.31 -3.32 3.31 3.32 3.32 2.89 -3.32zm6.63 -3.45l-6.63 -6.21 -2.89 6.21 9.52 0zm87.21 0.14l-3.32 -3.32 -3.31 3.32 3.31 3.31 3.32 -3.31zm122.77 0l-3.32 -3.32 -3.32 3.32 3.32 3.31 3.32 -3.31zm-119.45 -3.32l-3.32 -2.89 -3.32 2.89 6.64 0zm245.53 0l-3.32 -2.89 -3.31 2.89 3.31 3.32 3.32 -3.32zm-332.81 -2.89l0 -3.25 -3.25 -3.31 -3.31 6.56 3.31 2.89 3.25 -2.89zm80.64 0l-3.31 -3.25 -2.89 3.25 2.89 2.89 3.31 -2.89zm116.56 0l-3.32 -3.25 -3.24 3.25 3.24 2.89 3.32 -2.89zm-113.24 -3.25l-3.32 -3.31 -3.31 3.31 6.63 0zm242.22 0l-2.9 -3.31 -3.24 3.31 3.24 3.25 2.9 -3.25zm-135.54 -3.31l-42.19 -45.09 -6.21 9.53 28.93 32.24 16.15 6.63 3.32 -3.31zm116.13 0l-2.89 -3.32 -3.32 3.32 3.32 3.31 2.89 -3.31zm-303.45 -3.32l-3.32 -3.31 -3.25 3.31 3.25 3.32 3.32 -3.32zm316.72 0l-3.32 -3.31 -3.31 3.31 3.31 3.32 3.32 -3.32zm-313.83 -3.31l-2.89 -2.9 -3.32 2.9 6.21 0zm97.15 0l-3.31 -2.9 -3.32 2.9 3.32 3.31 3.31 -3.31zm3.32 -2.9l-3.32 -3.31 -3.31 3.31 6.63 0zm197.2 0l-3.32 -3.31 -3.31 3.31 3.31 2.9 3.32 -2.9zm9.53 0l0 -3.31 -74.44 -84.32 -3.32 6.56 74.44 83.97 3.32 -2.9zm-203.42 -3.31l-3.31 -3.32 -3.32 3.32 6.63 0zm-100.47 -3.32l-3.31 -3.32 -2.89 3.32 2.89 3.32 3.31 -3.32zm90.53 0l-3.32 -3.32 -2.89 3.32 2.89 3.32 3.32 -3.32zm197.2 0l-3.32 -3.32 -3.31 3.32 3.31 3.32 3.32 -3.32zm-193.89 -3.32l-3.31 -3.31 -3.32 3.31 6.63 0zm-93.84 -3.31l9.95 -19.4 -3.31 -2.9 -12.84 22.3 2.89 3.31 3.31 -3.31zm97.16 0l-3.32 -3.32 -3.31 3.32 6.63 0zm3.31 -6.21l-3.31 -3.25 -3.32 3.25 3.32 2.89 3.31 -2.89zm2.9 -3.25l-2.9 -3.31 -3.31 3.31 6.21 0zm171.59 0l-3.32 -3.31 -3.31 3.31 3.31 3.25 3.32 -3.25zm-261.69 -3.31l-3.32 -3.32 -3.31 3.32 3.31 3.31 3.32 -3.31zm93.41 0l-3.31 -3.32 -2.9 3.32 6.21 0zm-90.52 -3.32l3.32 -6.21 -3.32 -3.31 -6.21 9.52 6.21 0zm93.84 0l-3.32 -3.31 -3.31 3.31 6.63 0zm3.32 -3.31l-3.32 -2.9 -3.32 2.9 6.64 0zm3.24 -2.9l-3.24 -3.31 -3.32 3.31 6.56 0zm-93.84 -3.31l-3.24 -3.32 -3.32 3.32 3.32 3.31 3.24 -3.31zm97.16 0l-3.32 -3.32 -3.24 3.32 6.56 0zm-93.84 -3.32l-3.32 -3.32 -3.24 3.32 6.56 0zm-9.88 -3.32l-2.89 -3.31 -3.32 3.31 3.32 3.32 2.89 -3.32zm13.2 0l-3.32 -3.31 -3.32 3.31 6.64 0zm83.96 0l-3.32 -3.31 -3.32 3.31 3.32 3.32 3.32 -3.32zm142.16 0l-3.31 -3.31 -3.32 3.31 3.32 3.32 3.31 -3.32zm-236 -3.31l-3.32 -3.25 -2.89 3.25 6.21 0zm16.08 0l-3.31 -3.25 -2.89 3.25 2.89 3.31 3.31 -3.31zm-12.84 -3.25l-3.24 -2.89 -3.32 2.89 6.56 0zm16.16 0l-3.32 -2.89 -3.31 2.89 6.63 0zm-6.63 -2.89l3.31 -6.63 -3.31 -3.32 -6.21 9.95 6.21 0zm9.95 0l-3.32 -3.32 -3.32 3.32 6.64 0zm200.51 -6.63l-3.31 -3.32 -3.32 3.32 3.32 3.31 3.31 -3.31zm-203.83 -3.32l-3.32 -3.31 -3.31 3.31 3.31 3.32 3.32 -3.32zm3.32 -3.31l3.31 -6.21 -3.31 -3.32 -6.64 9.53 6.64 0zm193.88 0l-3.31 -2.9 -3.32 2.9 3.32 3.31 3.31 -3.31zm-184.36 -6.21l-2.89 -3.32 -3.32 3.32 3.32 3.31 2.89 -3.31zm3.25 -3.32l-3.25 -3.32 -2.89 3.32 6.14 0zm3.31 -3.32l-3.31 -3.24 -3.25 3.24 6.56 0zm3.32 -3.24l-3.32 -3.32 -3.31 3.32 6.63 0zm161.64 0l-3.32 -3.32 -3.31 3.32 3.31 3.24 3.32 -3.24zm-158.32 -3.32l-3.32 -2.89 -3.32 2.89 6.64 0zm2.89 -2.89l-2.89 -3.32 -3.32 3.32 6.21 0zm148.8 0l-3.25 -3.32 -3.31 3.32 3.31 2.89 3.25 -2.89zm9.52 0l-2.89 -3.32 -3.32 3.32 3.32 2.89 2.89 -2.89zm-155.01 -3.32l-3.31 -3.31 -2.89 3.31 6.2 0zm3.32 -3.31l-3.32 -3.32 -3.31 3.32 6.63 0zm135.61 0l-2.9 -3.32 -3.31 3.32 3.31 3.31 2.9 -3.31zm9.87 0l-3.31 -3.32 -3.25 3.32 3.25 3.31 3.31 -3.31zm-142.16 -3.32l-3.32 -3.31 -3.32 3.31 6.64 0zm135.6 -3.31l-3.31 -2.9 -2.9 2.9 2.9 3.31 3.31 -3.31zm-132.29 -2.9l-3.31 -3.31 -3.32 3.31 3.32 2.9 3.31 -2.9zm119.45 0l-3.31 -3.31 -3.32 3.31 3.32 2.9 3.31 -2.9zm12.84 -13.19l-3.31 -2.89 -2.9 2.89 2.9 3.25 3.31 -3.25zm3.25 -2.89l-3.25 -3.32 -3.31 3.32 6.56 0zm3.31 -3.32l-3.31 -3.32 -3.25 3.32 6.56 0zm3.32 -3.32l-3.32 -3.31 -3.31 3.31 6.63 0zm2.89 -3.31l-2.89 -3.32 -3.32 3.32 6.21 0zm3.32 -3.32l-3.32 -3.31 -2.89 3.31 6.21 0zm3.32 -3.31l-3.32 -2.9 -3.32 2.9 6.64 0zm3.31 -2.9l-3.31 -3.31 -3.32 3.31 6.63 0zm-161.64 -3.31l-3.32 -3.32 -3.31 3.32 3.31 3.31 3.32 -3.31zm164.96 0l-3.32 -3.32 -3.31 3.32 6.63 0zm12.77 -9.88l-3.32 -2.89 -3.24 2.89 3.24 3.32 3.32 -3.32zm3.31 -2.89l-3.31 -3.32 -3.32 3.32 6.63 0zm-109.92 -3.32l-3.32 -3.32 -3.31 3.32 3.31 3.32 3.32 -3.32zm113.24 0l-3.32 -3.32 -3.31 3.32 6.63 0zm2.89 -3.32l-2.89 -3.31 -3.32 3.31 6.21 0zm-122.76 -3.31l-2.9 -3.32 -3.31 3.32 3.31 3.31 2.9 -3.31zm126.08 0l-3.32 -3.32 -2.89 3.32 6.21 0zm-119.45 -3.32l0 -3.31 -42.19 -45.02 -2.9 3.32 41.77 48.33 3.32 -3.32zm16.09 0l-3.32 -3.31 -2.89 3.31 2.89 3.32 3.32 -3.32zm106.68 0l-3.32 -3.31 -3.32 3.31 6.64 0zm-135.61 -3.31l-3.32 -2.9 -3.31 2.9 3.31 3.31 3.32 -3.31zm32.24 0l-3.31 -2.9 -3.32 2.9 6.63 0zm106.68 0l-3.31 -2.9 -3.32 2.9 6.63 0zm-103.36 -2.9l-3.32 -3.31 -3.31 3.31 6.63 0zm3.31 -3.31l-3.31 -3.25 -3.32 3.25 6.63 0zm2.9 -3.25l-2.9 -3.31 -3.31 3.31 6.21 0zm3.31 -3.31l-3.31 -3.32 -2.9 3.32 6.21 0zm-57.92 -3.32l-3.32 -2.89 -3.24 2.89 3.24 3.32 3.32 -3.32zm61.24 0l-3.32 -2.89 -3.31 2.89 6.63 0zm-6.63 -6.21l-2.9 -3.31 -3.31 3.31 3.31 3.32 2.9 -3.32zm126.08 0l-3.32 -3.31 -2.89 3.31 2.89 3.32 3.32 -3.32zm-122.77 -3.31l-3.31 -3.32 -2.9 3.32 6.21 0zm126.09 0l-3.32 -3.32 -3.32 3.32 6.64 0zm-122.77 -3.32l-3.32 -3.32 -3.31 3.32 6.63 0zm16.09 0l-3.32 -3.32 -3.32 3.32 3.32 3.32 3.32 -3.32zm-12.85 -3.32l-3.24 -3.31 -3.32 3.31 6.56 0zm16.16 0l-3.31 -3.31 -3.32 3.31 6.63 0zm-97.15 -3.31l-2.9 -2.9 -3.31 2.9 3.31 3.31 2.9 -3.31zm210.39 0l-3.24 -2.9 -3.32 2.9 3.32 3.31 3.24 -3.31zm2.9 -2.9l-2.9 -3.24 -3.24 3.24 6.14 0zm-316.66 -3.24l-3.31 -3.32 -2.89 3.32 2.89 3.24 3.31 -3.24zm319.97 0l-3.31 -3.32 -2.9 3.32 6.21 0zm-119.45 -3.32l-3.31 -3.31 -3.32 3.31 3.32 3.32 3.31 -3.32zm122.77 0l-3.32 -3.31 -3.31 3.31 6.63 0zm-329.49 -3.31l-3.32 -3.32 -3.25 3.32 3.25 3.31 3.32 -3.31zm210.04 0l-3.32 -3.32 -3.31 3.32 6.63 0zm-216.61 -6.21l-3.31 -3.32 -3.32 3.32 3.32 2.89 3.31 -2.89zm339.37 0l-3.31 -3.32 -3.32 3.32 3.32 2.89 3.31 -2.89zm-109.99 -3.32l-3.25 -3.31 -3.31 3.31 3.31 3.32 3.25 -3.32zm-236.01 -3.31l-2.89 -3.32 -3.32 3.32 3.32 3.31 2.89 -3.31zm226.55 0l-3.31 -3.32 -3.32 3.32 3.32 3.31 3.31 -3.31zm12.77 0l-3.31 -3.32 -3.25 3.32 6.56 0zm-236 -3.39l-3.32 -3.32 -2.89 3.32 6.21 0zm229.44 0.07l-3.31 -3.32 -2.9 3.32 2.9 3.32 3.31 -3.32zm9.88 -0.07l-3.32 -3.32 -3.31 3.32 6.63 0zm-6.63 -3.25l-3.25 -3.24 -3.31 3.24 6.56 0zm9.52 0l-2.89 -3.24 -3.32 3.24 6.21 0zm103.79 0l-3.32 -3.24 -3.31 3.24 3.31 3.32 3.32 -3.32zm-110 -3.24l-3.31 -2.97 -3.25 2.97 6.56 0zm9.53 0l-3.32 -2.97 -2.89 2.97 6.21 0zm103.36 0l-2.89 -2.97 -3.32 2.97 6.21 0zm-109.57 -2.97l-3.32 -3.24 -3.31 3.24 6.63 0zm9.53 0l-3.32 -3.24 -3.32 3.24 6.64 0zm90.52 0l-3.32 -3.24 -3.31 3.24 3.31 2.97 3.32 -2.97zm-97.16 -3.24l-2.89 -3.32 -3.32 3.32 6.21 0zm9.95 0l-3.31 -3.32 -3.32 3.32 6.63 0zm-248.85 -3.32l-3.31 -3.31 -3.32 3.31 3.32 3.32 3.31 -3.32zm77.69 0l-3.32 -3.31 -3.32 3.31 3.32 3.32 3.32 -3.32zm164.53 0l-3.32 -3.31 -2.89 3.31 6.21 0zm9.95 0l-3.32 -3.31 -3.31 3.31 6.63 0zm-232.76 -3.31l-3.32 -3.32 -3.32 3.32 3.32 3.31 3.32 -3.31zm226.13 0l-3.32 -3.32 -3.32 3.32 6.64 0zm9.94 0l-3.31 -3.32 -3.32 3.32 6.63 0zm-6.63 -3.32l-3.31 -2.89 -3.32 2.89 6.63 0zm9.53 0l-2.9 -2.89 -3.31 2.89 6.21 0zm-187.33 -2.89l-3.31 -3.32 -3.25 3.32 3.25 2.89 3.31 -2.89zm190.57 0l-3.24 -3.32 -2.9 3.32 6.14 0zm-248.85 -3.32l-3.31 -3.31 -2.89 3.31 2.89 3.32 3.31 -3.32zm35.56 0l-3.31 -3.31 -2.89 3.31 2.89 3.32 3.31 -3.32zm216.61 0.07l-3.32 -3.31 -3.24 3.31 6.56 0zm-242.22 -3.38l-3.31 -3.32 -3.32 3.32 3.32 3.31 3.31 -3.31zm9.53 0l-3.32 -3.32 -2.89 3.32 2.89 3.31 3.32 -3.31zm19.4 0l-3.32 -3.32 -3.31 3.32 6.63 0zm206.73 0l-2.9 -3.32 -3.31 3.32 3.31 3.31 2.9 -3.31zm9.87 0l-3.31 -3.32 -3.32 3.32 6.63 0zm71.12 0l-3.31 -3.32 -3.32 3.32 3.32 3.31 3.31 -3.31zm-323.28 -3.32l-3.32 -3.25 -3.31 3.25 3.31 3.32 3.32 -3.32zm255.48 0l-3.32 -3.25 -3.31 3.25 6.63 0zm2.89 -3.25l-2.89 -3.31 -3.32 3.31 6.21 0zm6.64 -3.31l-3.32 -2.89 -3.32 2.89 3.32 3.31 3.32 -3.31zm32.24 0l-3.32 -2.89 -2.89 2.89 2.89 3.31 3.32 -3.31zm-38.88 -2.89l-2.89 -3.32 -3.32 3.32 3.32 2.89 2.89 -2.89zm9.95 -3.32l-3.31 -3.32 -3.32 3.32 3.32 3.32 3.31 -3.32zm28.93 0l-3.32 -3.32 -2.89 3.32 2.89 3.32 3.32 -3.32zm-25.61 -3.32l-3.32 -3.31 -3.31 3.31 6.63 0zm123.54 232.76l58.7 -2.89 8.68 2.89 14.89 -2.89 -12 0 -8.67 2.89 -58.71 -2.89 -2.89 2.89zm5.79 -8.67l2.89 -8.68 -5.79 0 -2.89 2.89 2.89 -2.89 -11.99 -3.32 -2.89 3.32 2.89 -3.32 -20.67 -2.89 -2.9 2.89 26.46 -11.57 -11.57 -2.89 -2.89 2.89 8.68 -5.78 -14.47 -2.9 -3.31 2.9 9.1 -12 11.57 -5.78 -8.68 -5.79 -2.89 2.89 -2.89 -2.89 -2.9 2.89 32.25 -8.68 2.89 -9.1 -5.79 -2.89 -2.89 2.89 2.89 -2.89 -6.2 -2.89 -5.79 2.89 82.27 -5.79 9.1 2.9 14.46 -2.9 -2.89 2.9 8.68 2.89 14.89 -2.89 -11.58 0 -9.1 5.78 17.78 6.21 -14.88 2.89 17.78 2.9 -14.89 2.89 20.67 2.89 -5.78 2.9 2.89 2.89 -5.79 2.89 2.9 2.89 -5.79 3.32 8.68 2.89 -17.78 8.68 11.99 5.79 14.47 -2.9 -5.79 0 -20.67 8.68 11.99 3.32 -20.67 2.89 -11.57 -2.89 -2.89 2.89 8.67 2.89 -20.67 2.9 -58.7 -2.9 -2.89 2.9zm26.46 -5.79l-17.78 -2.89 -2.9 2.89 17.78 2.89 2.9 -2.89zm-29.36 -11.99l-14.88 -2.9 -2.9 2.9 14.89 2.89 2.89 -2.89zm11.58 0l-5.79 -2.9 -2.89 2.9 5.78 2.89 2.9 -2.89zm88.05 0l-2.89 -2.9 -2.9 2.9 2.9 2.89 2.89 -2.89zm-93.84 -5.79l-11.99 -2.89 -2.9 2.89 12 2.89 2.89 -2.89zm-11.99 -11.57l-17.36 -3.32 -2.89 3.32 17.35 2.89 2.9 -2.89zm0 -9.1l-5.79 -2.89 -2.89 2.89 5.78 2.89 2.9 -2.89zm112.04 0l-2.9 -2.89 -3.31 2.89 3.31 2.89 2.9 -2.89zm-114.94 -5.79l-2.89 -2.89 -2.89 2.89 2.89 2.9 2.89 -2.9zm102.94 -2.89l-5.78 -2.89 -2.9 2.89 5.79 2.89 2.89 -2.89zm-35.13 -5.79l-8.68 -2.89 -3.32 2.89 9.1 2.9 2.9 -2.9zm32.24 0l-2.89 -2.89 -2.9 2.89 2.9 2.9 2.89 -2.9zm-79.37 -2.89l-2.9 -3.31 -2.89 3.31 2.89 2.89 2.9 -2.89z"/>
   <path class="fil3" d="M5893.49 5874.12c-17.63,-2.47 -35.91,-5.58 -54.75,-9.24 -18.9,-3.74 -34.64,-11.93 -47.34,-24.63l-11.15 -19.05 -7.9 -3.67 -3.67 -22.72 -14.88 -8.67 3.66 -47.91 -7.4 -200.52 14.88 -41.34 7.41 -3.74 -7.41 -3.74 7.41 0 0 -7.83 4.16 3.74 18.63 -11.15 -7.48 -3.74 3.74 0 15.31 7.41 143.44 -7.41 60.33 7.41 -3.67 3.74 22.71 7.83 -14.88 0 -4.16 -4.09 -14.89 7.83 49.25 14.88 -22.79 7.84 7.47 3.74 0 7.47 18.98 0 -18.98 3.67 18.98 3.74 -33.86 7.83 3.74 11.22 11.14 0 0 7.41 18.98 0 -38.02 3.74 -26.46 -3.74 -3.67 3.74 18.98 4.09 -26.46 3.74 33.94 7.48 -30.2 0 -98.43 -3.74 -26.45 7.41 105.83 3.74 -105.83 3.74 0 41.77 52.91 0 75.71 -7.48 34.29 3.74 9.1 -1.7 -1.69 1.7 7.47 3.74 3.74 7.4 4.94 -0.84 -1.27 0.84 4.17 3.74 -26.46 7.84 18.62 3.74 -7.47 3.73 22.71 7.41 -15.24 3.74 -3.74 15.31 22.72 0 -45.43 7.41 41.69 3.74 -33.86 7.83 14.88 7.48 -14.88 3.67 7.41 3.74 -33.87 7.83 13.26 1.27 -31.04 1.27 2.47 -2.54 -22.72 -4.09 -3.74 4.09 17.78 2.89 -49.18 2.12 1.2 -1.27 -56.58 -3.74 -3.74 3.74 34.71 2.05 -34.71 1.69 0 11.15c6.63,4.16 13.62,7.19 21.1,9.1l-2.47 2.47 7.83 3.74 3.74 -3.74 -2.9 -1.2c5.22,0.77 12.42,1.2 21.45,1.2 14.4,0 28.3,0 41.77,0l11.15 -3.74 4.16 7.48 26.46 -7.48 -7.83 -4.09 3.67 0 11.57 7.83 11.99 -9.53 14.47 5.79 11.21 7.48 11.58 -7.48 7.4 3.74 11.15 -3.74 4.16 3.74 -19.05 7.48 11.22 11.14 15.24 -3.73 3.74 3.73 3.74 -3.73 3.74 3.73 -18.63 7.84 3.74 3.74 -11.57 0 0 11.14 15.24 0 11.22 -7.4 3.67 3.66 -14.89 3.74 11.22 3.67 -26.46 4.17 0 7.4 -14.88 0 0 11.15 14.88 0 15.24 -3.74 -3.67 3.74 14.89 3.74 -41.34 15.31 3.66 3.67 -30.12 7.48 8.68 6.21c-20.68,6.35 -41.84,10.65 -63.5,12.98 -21.59,2.4 -44.95,2.33 -70.07,-0.21zm82.91 -7.2l-132.29 -11.57 -3.74 4.09c17.64,5.01 35.91,8.68 54.82,11.22 18.84,2.47 38.38,3.67 58.49,3.67l22.72 -7.41zm22.72 -3.74l-18.98 -3.74 -3.74 3.74 19.05 3.74 3.67 -3.74zm-162.42 -3.74l-38.03 -22.72 -3.74 3.74 38.03 22.72 3.74 -3.74zm177.73 0l-15.31 -4.09 -3.67 4.09 18.98 0zm-60.75 -4.09l-52.92 -3.74 -3.74 3.74 52.92 4.09 3.74 -4.09zm-79.38 -3.74l-3.74 -3.74 -3.73 3.74 3.73 3.74 3.74 -3.74zm60.75 -3.74l-26.46 -3.67 -4.09 3.67 26.46 3.74 4.09 -3.74zm-45.44 -3.67l-11.57 -3.74 -3.74 3.74 11.57 3.67 3.74 -3.67zm-49.24 -3.74l-3.67 -3.74 -3.74 3.74 3.74 3.74 3.67 -3.74zm19.05 0l-7.83 -3.74 -3.74 3.74 7.83 3.74 3.74 -3.74zm-26.46 -3.74l-3.74 -3.74 -4.09 3.74 4.09 3.74 3.74 -3.74zm-26.46 -3.74l-3.74 -4.09 -4.09 4.09 4.09 3.74 3.74 -3.74zm67.8 0l-3.74 -4.09 -3.73 4.09 3.73 3.74 3.74 -3.74zm181.47 0l-11.15 -4.09 -3.74 4.09 11.15 3.74 3.74 -3.74zm-60.32 -4.09l-3.74 -3.74 -3.74 3.74 3.74 4.09 3.74 -4.09zm33.86 0l-3.74 -3.74 -3.66 3.74 3.66 4.09 3.74 -4.09zm33.94 0l-3.74 -3.74 -3.74 3.74 3.74 4.09 3.74 -4.09zm-253.01 -3.74l-3.74 -3.74 -3.74 3.74 3.74 3.74 3.74 -3.74zm204.19 0l-4.1 -3.74 -3.74 3.74 3.74 3.74 4.1 -3.74zm-226.98 -3.74l-3.67 -3.74 -3.74 3.74 3.74 3.74 3.67 -3.74zm-7.41 -7.4l-3.74 -3.74 -4.09 3.74 4.09 3.66 3.74 -3.66zm7.41 -15.32l-3.67 -3.73 -3.74 3.73 3.74 3.74 3.67 -3.74zm-7.41 -7.47l-3.74 -3.67 -4.09 3.67 4.09 3.74 3.74 -3.74zm-11.57 -3.67l0 -7.48 -3.74 -4.09 -3.74 11.57 3.74 3.67 3.74 -3.67zm188.95 -22.79l-22.37 -3.67 -4.09 3.67 22.72 3.74 3.74 -3.74zm-86.86 -3.67l-7.4 -3.74 -3.74 3.74 7.41 3.67 3.73 -3.67zm49.18 0l-15.24 -3.74 -3.74 3.74 15.31 3.67 3.67 -3.67zm-155.01 -19.05l0 -14.89 -3.74 -4.09 -3.67 18.98 3.67 3.74 3.74 -3.74zm86.93 0l0 -3.74 -3.74 -3.67 -3.67 7.41 3.67 3.74 3.74 -3.74zm181.39 -75.64l-7.48 -3.74 -3.66 3.74 7.4 3.74 3.74 -3.74zm-264.58 -94.26l0 -19.05 -3.74 -3.67 -3.74 22.72 3.74 3.74 3.74 -3.74zm181.47 -3.74l-60.33 -4.09 -3.74 4.09 60.33 3.74 3.74 -3.74zm-60.33 -7.83l-3.74 -3.74 -3.73 3.74 3.73 3.74 3.74 -3.74zm-15.31 -11.15l-7.47 -3.74 -3.67 3.74 7.4 3.67 3.74 -3.67zm-105.83 -3.74l-3.74 -3.74 -3.74 3.74 3.74 3.74 3.74 -3.74zm-7.48 -11.57l0 -3.74 -3.67 -3.74 -3.74 7.48 3.74 3.74 3.67 -3.74zm11.22 -14.88l-3.74 -3.74 -3.74 3.74 3.74 3.74 3.74 -3.74zm15.24 0l-3.67 -3.74 -3.74 3.74 3.74 3.74 3.67 -3.74zm-15.24 -7.84l0 -3.73 -3.74 -3.74 -3.74 7.47 3.74 4.1 3.74 -4.1zm22.72 0l-3.74 -3.73 -3.74 3.73 3.74 4.1 3.74 -4.1zm-14.89 -11.21l-11.57 -3.67 -3.74 3.67 11.57 3.74 3.74 -3.74zm211.67 -11.15l-3.74 -4.09 -4.09 4.09 4.09 3.74 3.74 -3.74zm-181.47 -4.09l-3.74 -3.74 -3.74 3.74 3.74 4.09 3.74 -4.09zm14.89 0l-3.74 -3.74 -3.74 3.74 3.74 4.09 3.74 -4.09zm-7.48 -3.74l-3.74 -3.74 -3.67 3.74 3.67 3.74 3.74 -3.74zm102.09 -3.74l-37.6 -3.74 -4.1 3.74 38.03 3.74 3.67 -3.74zm-169.9 306.35l3.74 2.47 0 1.27 -3.74 -3.74zm286.95 -158.75l-13.26 2.04 2.04 -2.04 11.22 0zm15.24 11.15l-14.04 2.89 2.89 -2.89 11.15 0zm-26.46 94.68l-24.34 -2.47 31.82 -1.27 11.57 0 -19.05 3.74zm-11.14 11.15l-6.99 5.78 -4.58 -2.04 3.73 -3.74 7.84 0zm33.93 3.74l-26.45 7.83 18.97 -7.83 7.48 0zm-19.05 117.4l-2.47 -1.62 6.21 -2.12 7.83 0 -11.57 3.74zm-151.27 -109.57l4.94 2.47c-1.9,-0.21 -4.02,-0.64 -6.21,-1.2l1.27 -1.27zm34.29 -18.98l-21.94 -1.69 24.41 -0.78 -2.47 2.47zm56.66 -3.74l-5.01 -0.85 6.21 -0.42 -1.2 1.27z"/>
   <path class="fil4" d="M6255.72 5881.81l3.32 -3.32 -10.37 -6.63 -3.25 3.32 -3.32 -6.64 3.32 -3.31 -6.63 -6.99 -10.37 13.62 0 -13.62 -6.57 0c0,-4.44 -0.63,-8.32 -1.9,-11.78 -1.2,-3.46 -2.4,-6.84 -3.53,-10.16 -1.06,-3.25 -3.24,-6.07 -6.56,-8.47 -3.32,-2.32 -3.88,-5.71 -1.69,-10.09l-7.06 0 -3.31 3.32 10.37 23.57 -3.32 3.66 -10.37 -27.23 -6.63 13.62 -13.69 -37.18 0 3.31 9.95 16.93 3.74 -13.68 -37.26 -108.31 0 3.32 6.64 16.93 6.63 -13.61 -23.64 -74.44 -3.31 6.63 -17.01 -60.74 3.32 -16.94 -17.01 -54.18 3.32 -6.64 -3.32 -13.61 0 9.87 10.38 0 0 -23.56 3.31 13.69 3.25 -7.06 10.3 -3.31 6.63 17 6.56 -20.32 0 13.69 7.06 0 3.31 9.87 3.32 -20.24 3.39 3.31 7.05 -6.63 3.32 10.37 3.31 -10.37 10.38 27.3 6.63 -13.61 6.7 23.56 3.74 -9.95 9.95 26.89 3.32 -6.64 -3.32 -13.61 0 6.63c4.66,18.13 8.68,35.77 11.99,52.7 3.32,16.94 7.76,34.43 13.41,52.5 5.64,18.06 11.85,35.56 18.63,52.49 6.77,16.93 13.54,33.3 20.46,48.96l9.94 -16.93 -9.94 20.25 3.31 3.32c6.92,-11.01 14.25,-22.79 22.09,-35.35 7.9,-12.56 15.17,-24.41 21.94,-35.77 6.77,-11.29 12.42,-23.71 16.93,-37.19 4.59,-13.47 10.16,-25.89 16.79,-37.18l3.67 3.25 9.95 -20.25 -3.31 -3.25 -10.31 13.62 23.92 -30.62 -3.31 -3.32 17 -47.48 3.32 3.24 9.87 -16.93 -6.56 16.93 10.3 0 9.95 -13.19 13.62 6.63 3.31 -10.37 3.32 13.69 3.32 -6.63 3.67 6.63 -3.67 6.98 10.3 9.95 6.63 -9.95 0 3.32 -3.32 6.63 3.32 10.3 -3.32 3.32 10.3 3.32 3.32 -13.62 0 3.67 -6.56 23.56 6.56 9.95 10.37 -30.2 0 3.32 -7.05 20.25 3.31 3.31 3.74 -6.63 0 3.32c-6.91,20.39 -13.19,40.22 -18.84,59.34 -5.64,19.19 -14.11,38.31 -25.4,57.5 -11.28,19.12 -21.44,38.31 -30.4,57.64 -8.97,19.26 -19.05,37.89 -30.41,55.81l-3.67 -3.32 -16.94 27.31 -9.94 -3.74 -37.19 57.85 -10.37 3.32 0 6.63 -6.63 0 -3.32 10.3 20.32 6.64 -3.31 0 -17.01 -6.64 -3.67 3.32 -9.94 -3.32 -6.99 13.27 3.67 -3.32 -6.98 -6.63 -13.27 9.95zm6.35 -6.63l-3.32 -3.32 -3.31 3.32 3.31 3.31 3.32 -3.31zm-6.63 -3.32l-3.67 -3.32 -3.32 3.32 3.32 3.32 3.67 -3.32zm3.31 -3.32l-3.31 -3.31 -3.67 3.31 6.98 0zm17.01 0l-3.74 -3.31 -3.32 3.31 3.32 3.32 3.74 -3.32zm-13.69 -3.31l-3.32 -3.67 -3.31 3.67 6.63 0zm-13.62 -3.67l-3.31 -3.32 -3.32 3.32 3.32 3.67 3.31 -3.67zm-6.63 -6.63l0 -6.64 -10.3 0 -6.63 6.64 6.63 10.3 10.3 -10.3zm6.63 0l0 -3.32 -3.31 -3.32 -3.32 3.32 6.63 3.32zm6.99 -3.32l-3.67 -3.32 -3.32 3.32 3.32 3.32 3.67 -3.32zm50.45 -3.32l-3.32 -3.73 -3.25 3.73 3.25 3.32 3.32 -3.32zm-67.38 -3.73l-3.67 -3.25 -3.32 3.25 3.32 3.73 3.67 -3.73zm71.12 0.14l-3.74 -3.32 -3.32 3.32 7.06 0zm3.31 -3.39l-3.31 -3.32 -3.74 3.32 7.05 0zm-78.1 -3.32l0 -3.31 -3.32 -3.32 -3.32 9.95 3.32 3.25 3.32 -6.57zm81.42 -3.31l-3.32 -3.32 -3.31 3.32 3.31 3.31 3.32 -3.31zm-94.69 -3.32l-3.74 -3.74 -3.31 3.74 3.31 3.32 3.74 -3.32zm98 -0.21l-3.31 -3.74 -3.32 3.74 6.63 0zm3.32 -3.53l-3.32 -3.31 -3.31 3.31 6.63 0zm-131.94 -6.63l-3.24 -3.32 -3.74 6.64 3.74 3.31 3.24 -6.63zm26.88 0l-3.31 -3.32 -3.32 3.32 3.32 3.32 3.31 -3.32zm-16.93 -6.56l0 -7.06 -6.63 -13.19 -3.32 13.19 6.63 10.3 3.32 -3.24zm145.91 -17.01l-3.32 -3.24 -3.67 3.24 3.67 3.32 3.32 -3.32zm13.26 -10.3l-3.31 -3.31 -3.32 3.31 3.32 3.32 3.31 -3.32zm-172.36 -6.63l-3.74 -3.31 -3.32 3.31 3.32 3.32 3.74 -3.32zm172.36 0l-3.31 -3.31 -3.32 3.31 3.32 3.32 3.31 -3.32zm7.06 -3.31l-3.32 -3.67 -3.74 3.67 3.74 3.31 3.32 -3.31zm-183.16 -3.67l-3.32 -3.32 -3.32 3.32 3.32 3.67 3.32 -3.67zm-3.32 -6.64l0 -3.31 -3.32 -3.32 -3.31 6.63 3.31 3.32 3.32 -3.32zm193.04 0l-3.32 -3.31 -3.24 3.31 3.24 3.32 3.32 -3.32zm-196.36 -10.37l0 -9.87 -3.31 -3.32 -3.32 13.19 3.32 3.74 3.31 -3.74zm210.05 -6.56l0 -3.31 -3.32 -3.32 -3.32 6.63 3.32 3.25 3.32 -3.25zm3.24 -6.63l10.37 -16.93 -10.37 -3.74 -6.56 20.67 3.32 3.32 3.24 -3.32zm-216.6 -3.74l0 -6.63 -3.32 -3.32 -3.31 13.69 3.31 3.32 3.32 -7.06zm94.68 -9.95l-3.31 -3.24 -3.32 3.24 3.32 3.32 3.31 -3.32zm-104.98 -3.24l0 -7.06 -3.32 -3.32 -3.31 10.38 3.31 3.24 3.32 -3.24zm108.3 0l-3.32 -3.74 -3.31 3.74 6.63 0zm-6.63 -3.74l-3.32 -3.32 -3.32 3.32 3.32 3.74 3.32 -3.74zm3.31 -3.32l0 -3.32 -3.31 -3.31 -3.32 6.63 6.63 0zm135.61 0l-3.32 -3.32 -3.31 6.64 3.31 3.74 3.32 -7.06zm-230.29 -3.32l-3.32 -3.31 -3.31 3.31 3.31 3.32 3.32 -3.32zm88.05 -3.31l-3.32 -3.32 -3.31 3.32 3.31 3.31 3.32 -3.31zm145.56 0l0 -3.32 -3.32 -3.31 -3.32 9.94 6.64 -3.31zm-236.93 -3.32l0 -3.31 -3.31 -3.67 -3.67 6.98 3.67 3.32 3.31 -3.32zm94.69 0l0 -6.98 -3.32 -3.32 -3.32 10.3 6.64 0zm145.55 -3.31l0 -3.67 -3.31 -3.32 -3.32 6.99 3.32 3.31 3.31 -3.31zm-243.55 -6.99l-3.67 -3.32 -3.32 3.32 3.32 3.32 3.67 -3.32zm247.22 0l0 -3.32 -3.67 -3.31 -3.31 6.63 3.31 3.32 3.67 -3.32zm3.32 -6.63l-3.32 -3.32 -3.67 3.32 3.67 3.31 3.32 -3.31zm-162.49 -3.32l-3.67 -3.74 -3.32 3.74 3.32 3.32 3.67 -3.32zm3.31 -3.74l0 -3.24 -3.31 -3.32 -3.67 6.56 6.98 0zm162.49 0l-3.31 -3.24 -3.32 3.24 3.32 3.74 3.31 -3.74zm-108.3 -3.24l-3.31 -3.32 -3.74 3.32 3.74 3.24 3.31 -3.24zm111.62 0l0 -6.63 -3.32 -3.32 -3.31 9.95 6.63 0zm-9.95 -3.32l-3.67 -3.31 -3.31 3.31 3.31 3.32 3.67 -3.32zm-162.84 -3.31l-3.32 -3.32 -3.31 3.32 3.31 3.31 3.32 -3.31zm3.67 -3.32l-3.67 -3.74 -3.32 3.74 6.99 0zm64.13 0l-3.31 -3.74 -3.32 3.74 3.32 3.32 3.31 -3.32zm108.31 0l-3.32 -3.74 -3.32 3.74 3.32 3.32 3.32 -3.32zm-6.64 -3.74l30.62 -64.06 -3.74 -3.32 -33.51 71.12 3.32 3.32 3.31 -7.06zm-172.79 -3.32l-3.31 -3.24 -3.32 3.24 3.32 3.32 3.31 -3.32zm186.41 0l-3.25 -3.24 -3.73 3.24 3.73 3.32 3.25 -3.32zm-206.66 -3.24l-3.31 -3.32 -3.32 3.32 3.32 3.24 3.31 -3.24zm16.94 -3.32l-3.32 -3.31 -3.31 3.31 3.31 3.32 3.32 -3.32zm193.04 0l0 -3.31 3.31 -7.06 -3.31 -3.32 -6.57 13.69 3.25 3.32 3.32 -3.32zm-189.73 -3.31l-3.31 -3.74 -3.32 3.74 6.63 0zm-6.63 -7.06l-3.31 -3.32 -3.67 3.32 3.67 3.32 3.31 -3.32zm3.32 -3.32l-3.32 -3.31 -3.31 3.31 6.63 0zm199.67 0l0 -3.31 -3.32 -3.25 -3.31 6.56 3.31 3.32 3.32 -3.32zm-206.3 -3.31l-3.67 -3.25 -3.32 3.25 3.32 3.31 3.67 -3.31zm98 0l-3.32 -3.25 -3.32 3.25 3.32 3.31 3.32 -3.31zm-94.69 -3.25l-3.31 -3.74 -3.67 3.74 6.98 0zm206.3 0l0 -3.74 -3.31 -3.31 -3.32 7.05 3.32 3.25 3.31 -3.25zm-108.3 -3.74l-3.31 -3.31 -3.32 3.31 3.32 3.74 3.31 -3.74zm-104.98 -3.31l-3.32 -3.32 -3.32 3.32 3.32 3.31 3.32 -3.31zm3.67 -3.32l-3.67 -3.31 -3.32 3.31 6.99 0zm104.98 0l-3.67 -3.31 -3.31 3.31 3.31 3.32 3.67 -3.32zm-203.34 -3.31l0 -3.32 -3.31 -3.32 -3.32 6.64 3.32 3.31 3.31 -3.31zm91.37 0l-3.32 -3.32 -3.31 3.32 3.31 3.31 3.32 -3.31zm3.32 -3.32l0 -6.99 -3.32 -3.31 -3.32 10.3 6.64 0zm111.97 0l-3.32 -3.32 -3.67 3.32 3.67 3.32 3.32 -3.32zm3.31 -6.99l0 -3.31 -3.31 -3.32 -3.32 6.63 3.32 3.67 3.31 -3.67zm-213.28 -3.31l-3.32 -3.32 -3.74 3.32 3.74 3.31 3.32 -3.31zm216.6 -3.32l0 -3.31 -3.32 -3.32 -3.31 6.63 3.31 3.32 3.32 -3.32zm-128.55 -6.63l-3.32 -3.74 -3.74 3.74 3.74 3.32 3.32 -3.32zm131.87 0l0 -3.74 -3.32 -3.24 -3.32 6.98 3.32 3.32 3.32 -3.32zm-128.56 -3.74l0 -3.24 -3.31 -3.32 -3.32 6.56 6.63 0zm226.98 0l0 -3.24 -3.32 -3.32 -3.74 6.56 3.74 3.74 3.32 -3.74zm-95.11 -3.24l0 -3.32 -3.31 -3.32 -3.32 6.64 3.32 3.24 3.31 -3.24zm-138.5 -3.32l-3.74 -3.32 -3.31 3.32 3.31 3.32 3.74 -3.32zm243.49 0l0 -3.32 -3.32 -3.31 -3.31 6.63 3.31 3.32 3.32 -3.32zm-240.17 -3.32l0 -7.05 -3.32 -3.32 -3.74 10.37 7.06 0zm138.92 0l0 -3.31 -3.74 -3.74 -3.31 7.05 3.31 3.32 3.74 -3.32zm104.99 -3.31l0 -7.06 -3.74 -3.31 -3.32 10.37 3.32 3.31 3.74 -3.31zm-342.34 -7.06l0 -3.31 -3.31 -3.25 -3.25 6.56 3.25 3.32 3.31 -3.32zm101.74 0l-3.31 -3.31 -3.32 3.31 3.32 3.32 3.31 -3.32zm-6.63 -3.31l0 -6.57 -3.74 -3.74 -3.31 13.62 3.31 3.32 3.74 -6.63zm250.54 -3.25l0 -10.37 3.32 -13.62 -3.32 -3.32 -7.05 27.31 3.74 3.25 3.31 -3.25zm-247.22 -7.06l0 -3.31 -3.32 -3.32 -3.74 6.63 3.74 3.74 3.32 -3.74zm-7.06 -6.63l0 -6.56 -9.87 -33.94 -3.32 16.94 9.88 33.93 3.31 -10.37zm159.18 0l-3.32 -3.31 -3.32 3.31 3.32 3.32 3.32 -3.32zm-155.44 -10.3l-3.74 -3.32 -3.31 3.32 3.31 3.74 3.74 -3.74zm236.86 -33.51l-3.25 -3.74 -3.32 3.74 3.32 3.31 3.25 -3.31zm-345.58 -6.99l0 -3.31 -3.32 -3.32 -3.32 6.63 3.32 3.25 3.32 -3.25zm81.63 0l0 -6.63 -3.32 -3.32 -3.31 9.95 3.31 3.25 3.32 -3.25zm203.2 0l-3.74 -3.31 -3.32 3.31 3.32 3.25 3.74 -3.25zm6.63 0l0 -3.31 -3.32 -3.32 -3.31 3.32 6.63 3.31zm-240.59 -3.31l-3.32 -3.32 -3.31 3.32 3.31 3.31 3.32 -3.31zm277.77 -3.32l-3.31 -3.32 -3.32 3.32 3.32 3.32 3.31 -3.32zm-40.5 -3.32l-3.31 -3.74 -3.74 3.74 3.74 3.32 3.31 -3.32zm6.64 0l0 -3.74 -3.32 -3.31 -3.32 3.31 6.64 3.74zm-277.85 -3.74l-3.32 -3.31 -3.31 3.31 3.31 3.74 3.32 -3.74zm294.78 0l0 -3.31 -3.32 -3.32 -3.31 6.63 3.31 3.74 3.32 -3.74zm20.25 0l0 -3.31 -3.32 -3.32 -3.31 6.63 3.31 3.74 3.32 -3.74zm-294.36 -6.63l-3.74 -3.24 -3.24 3.24 3.24 3.32 3.74 -3.32zm277.43 0l0 -3.24 -3.32 -3.32 -3.32 6.56 3.32 3.32 3.32 -3.32zm-301.42 -3.24l-3.31 -3.32 -3.25 3.32 3.25 3.24 3.31 -3.24zm54.19 0l-3.32 -3.32 -3.31 3.32 3.31 3.24 3.32 -3.24z"/>
   <path class="fil5" d="M6665.16 5878.49c-4.73,-2.47 -10.09,-4.94 -16.16,-7.48 -6.07,-2.47 -11.5,-5.5 -16.3,-9.03 -4.87,-3.6 -9.66,-7.83 -14.46,-12.63 -4.87,-4.79 -9.74,-8.46 -14.68,-10.93l-3.31 3.67 17.78 18.2 -35.99 -36.34 -3.74 3.67 -21.45 -32.66 -3.73 3.73 -43.4 -76.05 3.67 -17.78 -11.15 -72.32c5.01,-12.14 10.52,-23.64 16.59,-34.57 6.06,-10.87 12.62,-21.74 19.82,-32.67 7.13,-10.87 14.96,-21.66 23.36,-32.46 8.39,-10.72 17.42,-20.88 27.09,-30.55 12.13,-7.48 23.63,-14.11 34.5,-20.03 10.87,-5.93 22.93,-9.53 36.19,-10.8 13.2,-1.2 27.03,-1.83 41.56,-1.83 14.46,0 29,0 43.6,0l83.05 43.39c9.66,14.32 19.96,28.22 30.83,41.55 10.87,13.41 19.9,27.87 27.09,43.4 7.13,15.59 11.36,31.89 12.56,48.82 1.27,16.93 1.91,35.07 1.91,54.33 -4.94,9.66 -8.61,20.46 -10.94,32.45 -2.4,12 -5.36,22.79 -8.89,32.46 -3.6,9.66 -8.47,19.89 -14.53,30.83 -6,10.87 -13.9,19.9 -23.5,27.09 -14.67,7.41 -27.94,15.31 -39.93,23.71 -12,8.47 -26.46,12.63 -43.39,12.63 -16.94,0 -33.24,0.63 -48.83,1.83 -15.52,1.27 -30.62,2.97 -45.22,5.22l28.92 7.41 -28.92 3.74zm-18.21 -14.46l-3.31 -3.74 -3.74 3.74 3.74 3.31 3.31 -3.31zm133.92 -11.15l-10.73 -3.32 -3.74 3.32 10.8 3.67 3.67 -3.67zm-155.44 -7.05l-3.66 -3.74 -3.74 3.74 3.74 3.73 3.66 -3.73zm159.18 -3.74l-3.74 -3.74 -3.67 3.74 3.67 3.74 3.74 -3.74zm-166.58 -10.73l-3.32 -3.74 -3.74 3.74 3.74 3.74 3.32 -3.74zm202.56 0l18.2 -21.94 -3.74 -3.32 -46.7 32.25 32.24 -6.99zm-224.08 -3.74l-7.41 -6.98 -3.32 6.98 14.47 14.47 3.31 -3.74 -7.05 -10.73zm3.74 -3.74l-3.74 -3.24 -3.74 3.24 7.48 0zm242.28 -3.24l-3.74 -3.74 -3.74 3.74 3.74 3.24 3.74 -3.24zm3.67 -3.74l35.98 -61.6 -3.74 -3.74 -39.65 65.34 7.41 0zm-3.67 -10.8l-3.74 -3.67 -3.74 3.67 3.74 3.32 3.74 -3.32zm-285.68 -14.46l-3.73 -3.67 -3.74 6.99 3.74 3.73 3.73 -7.05zm140.97 -3.67l-10.79 -3.74 -3.67 3.74 10.72 3.67 3.74 -3.67zm-7.48 -7.48l-10.72 -3.31 0 7.05 3.74 3.74 6.98 -7.48zm57.93 0l-39.72 -3.31 -7.06 7.05 17.78 3.74 29 -7.48zm-93.91 -6.98l-3.67 -3.74 -3.74 3.74 3.74 3.67 3.67 -3.67zm21.52 0l-6.98 -3.74 -3.74 3.74 7.4 3.67 3.32 -3.67zm36.41 0l-14.47 -3.74 -3.74 3.74 14.47 3.67 3.74 -3.67zm-25.26 -3.74l-7.41 -3.74 -3.74 3.74 7.48 3.74 3.67 -3.74zm79.37 0l-3.67 -3.74 -3.31 3.74 3.31 3.74 3.67 -3.74zm94.26 0l-3.66 -3.74 -3.74 3.74 3.74 3.74 3.66 -3.74zm-220.76 -3.74l-3.67 -3.32 -3.74 3.32 3.74 3.74 3.67 -3.74zm25.26 0l-3.74 -3.32 -3.32 3.32 3.32 3.74 3.74 -3.74zm90.52 -3.32l-3.74 -3.74 -3.67 3.74 3.67 3.32 3.74 -3.32zm10.72 0l-3.67 -3.74 -3.31 3.74 3.31 3.32 3.67 -3.32zm97.58 0l-3.32 -3.74 -3.66 3.74 3.66 3.32 3.32 -3.32zm-234.81 -3.74l-3.74 -3.67 -3.66 3.67 3.66 3.74 3.74 -3.74zm144.71 0l-3.74 -3.67 -3.74 3.67 3.74 3.74 3.74 -3.74zm-238.97 -3.67l-3.74 -3.74 -3.31 3.74 3.31 3.67 3.74 -3.67zm101.32 -3.74l-3.74 -3.31 -3.32 3.31 3.32 3.74 3.74 -3.74zm140.97 0l-7.06 -3.31 -3.74 3.31 7.48 3.74 3.32 -3.74zm-246.03 -3.31l-3.31 -3.74 -3.67 3.74 3.67 3.31 3.31 -3.31zm98 0l-3.74 -3.74 -3.66 3.74 3.66 3.31 3.74 -3.31zm151.7 0l-3.67 -3.74 -3.32 3.74 6.99 0zm-159.1 -3.74l-3.74 -3.67 -3.32 3.67 3.32 3.74 3.74 -3.74zm260.41 0l-3.74 -3.67 -3.31 3.67 3.31 3.74 3.74 -3.74zm-115.28 19.89c16.58,-20.39 25.47,-33.65 26.67,-39.72 1.27,-6.07 1.9,-12.7 1.9,-20.04 0,-7.33 0,-13.89 0,-19.82 0,-5.93 0,-12.63 0,-20.04 -2.47,-7.2 -4.3,-14.39 -5.36,-21.52 -1.13,-7.19 -3.53,-13.76 -7.27,-19.82 -3.74,-6.07 -7.34,-12.77 -10.93,-20.11 -3.6,-7.27 -7.76,-13.27 -12.42,-17.92l-45.51 -22.79c-23.42,-0.57 -37.39,1.34 -41.91,5.57 -4.59,4.31 -9.88,8.26 -15.94,11.78 -6.07,3.6 -12.07,8.4 -18,14.47 -5.92,6.07 -11.36,11.5 -16.29,16.15 -2.47,2.47 -4.94,5.51 -7.27,9.11 -2.33,3.59 -4.73,7.12 -7.2,10.72 -2.47,3.6 -3.74,7.27 -3.74,10.94 0,3.74 0,7.97 0,12.63 2.47,7.19 3.74,14.39 3.74,21.73 0,7.26 0.57,14.53 1.84,21.66 1.27,7.19 3.03,13.83 5.36,19.89 2.33,6.07 7.69,17.64 15.94,34.72 8.26,17.07 29.5,27.44 63.64,30.97 34.22,3.6 58.42,-2.61 72.75,-18.56zm108.23 -23.56l-3.67 -3.74 -3.74 3.74 3.74 3.67 3.67 -3.67zm10.79 -3.74l0 -3.32 -3.74 -3.74 -3.74 7.06 3.74 3.74 3.74 -3.74zm-354.75 -3.32l-3.31 -3.74 -3.67 3.74 3.67 3.32 3.31 -3.32zm-6.98 -7.4l-3.74 -3.74 -3.74 3.74 3.74 3.66 3.74 -3.66zm-7.48 -3.74l-3.32 -3.32 -3.67 3.32 3.67 3.74 3.32 -3.74zm372.88 0l-3.67 -3.32 -3.74 10.72 3.74 3.74 3.67 -11.14zm-369.14 -3.32l0 -7.48 -3.74 -3.67 -3.32 11.15 7.06 0zm282.36 -11.15l0 -54.18c-2.47,-4.66 -3.74,-10.66 -3.74,-18 0,-7.26 -1.76,-13.33 -5.36,-18.13 -3.6,-4.87 -7.2,-9.66 -10.94,-14.53 -3.74,-4.8 -7.9,-9.53 -12.63,-14.25l-3.74 7.05c7.2,7.13 12.63,15.59 16.37,25.19 3.74,9.67 6.7,19.33 9.1,28.93 2.33,9.66 3.53,19.96 3.53,30.83 0,10.86 1.2,21.17 3.67,30.76l3.74 -3.67zm-282.36 -3.31l-3.74 -3.74 -3.32 3.74 3.32 3.31 3.74 -3.31zm-3.74 -7.48l0 -28.93 -3.32 -3.67 -3.67 32.6 3.67 3.74 3.32 -3.74zm293.15 -3.67l0 -39.72 -3.73 -3.74 -3.32 43.46 3.32 3.67 3.73 -3.67zm-285.67 -10.8l0 -10.72 -3.74 -3.74 -3.74 14.46 3.74 3.74 3.74 -3.74zm6.98 -3.66l-3.31 -3.32 -3.67 3.32 3.67 3.66 3.31 -3.66zm286.1 -10.8l0 -3.67 -3.74 -3.31 -3.67 6.98 3.67 3.74 3.74 -3.74zm-303.88 -6.98l0 -21.95 -3.67 -3.74 -3.74 25.69 3.74 3.31 3.67 -3.31zm14.47 -11.22l-3.67 -3.25 -3.74 3.25 3.74 3.74 3.67 -3.74zm-7.41 -3.25l0 -7.48 -3.74 -3.74 -3.32 11.22 3.32 3.25 3.74 -3.25zm79.8 3.25l0 -10.73 7.05 -18.2 -3.74 -3.32 -14.46 29 11.15 3.25zm205.88 -3.25l0 -7.48 -3.32 -3.74 -3.74 11.22 3.74 3.25 3.32 -3.25zm-296.41 -14.53l-3.74 -3.67 -3.74 3.67 3.74 3.31 3.74 -3.31zm372.46 -7.41l0 -3.74 -3.74 -3.32 -3.31 7.06 3.31 3.74 3.74 -3.74zm-267.47 -7.06l3.32 -7.41 -3.32 -3.73 -7.48 11.14 3.74 3.32 3.74 -3.32zm-7.48 -7.41l-3.67 -3.73 -3.31 3.73 3.31 3.74 3.67 -3.74zm-83.04 -3.73l0 -3.32 -3.74 -3.67 -3.74 6.99 3.74 3.73 3.74 -3.73zm86.78 0l-3.74 -3.32 -3.67 3.32 7.41 0zm10.8 0l-3.74 -3.32 -3.32 3.32 3.32 3.73 3.74 -3.73zm3.66 -3.32l-3.66 -3.67 -3.74 3.67 7.4 0zm-7.4 -3.67l-3.32 -3.74 -3.74 3.74 3.74 3.67 3.32 -3.67zm11.14 0l-3.74 -3.74 -3.66 3.74 7.4 0zm162.49 0l-3.31 -3.74 -3.74 3.74 3.74 3.67 3.31 -3.67zm-169.89 -3.74l25.18 -18.2 -10.72 -3.32 -21.52 21.52 7.06 0zm10.72 0l-3.32 -3.74 -3.74 3.74 7.06 0zm220.77 -7.05l-3.74 -3.67 -3.32 3.67 3.32 3.31 3.74 -3.31zm-195.16 -14.47l3.32 -3.74 -7.06 -3.67 -10.72 7.41 10.72 3.32 3.74 -3.32zm104.63 0l-3.31 -3.74 -3.74 3.74 3.74 3.32 3.31 -3.32zm-7.05 -3.74l-3.74 -3.67 -3.67 3.67 3.67 3.74 3.74 -3.74zm-86.78 -3.67l-7.48 -3.74 -3.32 3.74 7.06 3.67 3.74 -3.67zm188.1 -10.79l-3.74 -3.67 -3.74 3.67 3.74 3.74 3.74 -3.74zm-195.58 -3.67l-3.32 -3.74 -3.74 3.74 3.74 3.67 3.32 -3.67zm166.58 0l-3.67 -3.74 -3.74 3.74 3.74 3.67 3.67 -3.67zm-68.58 -7.06l-3.74 -3.74 -3.74 3.74 3.74 3.32 3.74 -3.32zm-199.25 -3.74l-3.32 -3.66 -3.73 3.66 3.73 3.74 3.32 -3.74zm11.15 0l-3.74 -3.66 -3.74 3.66 3.74 3.74 3.74 -3.74zm176.95 0l-3.32 -3.66 -3.74 3.66 3.74 3.74 3.32 -3.74zm83.47 0l-3.74 -3.66 -3.67 3.66 3.67 3.74 3.74 -3.74zm14.46 0l-3.67 -3.66 -3.74 3.66 3.74 3.74 3.67 -3.74zm-282.36 -3.66l-3.67 -3.74 -3.32 3.74 6.99 0zm10.79 0l-3.31 -3.74 -3.74 3.74 7.05 0zm-7.05 -3.74l-3.74 -3.32 -3.67 3.32 7.41 0zm245.95 0l-3.67 -3.32 -3.73 3.32 3.73 3.74 3.67 -3.74zm-242.21 -3.32l-3.74 -3.74 -3.74 3.74 7.48 0zm249.27 0l-3.32 -3.74 -3.74 3.74 3.74 3.32 3.32 -3.32zm-242.29 -3.74l14.47 -14.46 -6.99 -3.74 -18.2 18.2 10.72 0zm25.26 -14.46l-3.31 -3.74 -3.74 3.74 3.74 3.74 3.31 -3.74zm202.57 0l-3.32 -3.74 -3.74 3.74 3.74 3.74 3.32 -3.74zm-209.62 -3.74l-3.74 -3.67 -3.67 3.67 3.67 3.74 3.74 -3.74zm10.72 0l-3.67 -3.67 -3.31 3.67 6.98 0zm202.63 0l-3.73 -3.67 -3.32 3.67 7.05 0zm-198.89 -3.67l-3.74 -3.32 -3.67 3.32 7.41 0zm10.8 0l-3.74 -3.32 -3.32 3.32 3.32 3.67 3.74 -3.67zm169.89 0l-7.05 -3.32 -3.74 3.32 7.48 3.67 3.31 -3.67zm11.15 0l-3.74 -3.32 -3.67 3.32 3.67 3.67 3.74 -3.67zm-206.3 -3.32l-3.74 -3.74 -3.67 3.74 3.67 3.32 3.74 -3.32zm32.66 0l-7.4 -3.74 -3.74 3.74 11.14 0zm166.23 0l-3.74 -3.74 -3.31 3.74 7.05 0zm-191.84 -3.74l-3.31 -3.74 -3.74 3.74 3.74 3.74 3.31 -3.74zm28.93 0l-3.32 -3.74 -3.74 3.74 7.06 0zm137.65 0l-3.74 -3.74 -3.67 3.74 3.67 3.74 3.74 -3.74zm18.21 0l-3.74 -3.74 -3.74 3.74 3.74 3.74 3.74 -3.74zm-148.45 -3.74l-7.41 -3.66 -3.32 3.66 10.73 0zm122.83 0l-7.05 -3.66 -3.74 3.66 7.48 3.74 3.31 -3.74zm18.14 0l-3.67 -3.66 -3.32 3.66 3.32 3.74 3.67 -3.74zm-159.1 -3.66l-10.8 -3.32 -10.72 6.98 21.52 -3.66zm21.87 0l-3.74 -3.32 -3.67 3.32 7.41 0zm10.72 0l-3.67 -3.32 -3.74 3.32 3.74 3.66 3.67 -3.66zm79.38 0l-3.25 -3.32 -3.74 3.32 3.74 3.66 3.25 -3.66zm18.2 0l-10.73 -3.32 -3.73 3.32 10.79 3.66 3.67 -3.66zm-122.77 -3.32l-7.4 -3.74 -3.74 3.74 11.14 0zm72.32 3.1l0 -10.72 -14.46 0 -25.61 10.72 11.14 3.74 28.93 -3.74zm-65.26 -6.84l-7.06 -3.74 -3.74 3.74 10.8 0zm101.25 0l-14.47 -3.74 -3.74 3.74 14.47 3.74 3.74 -3.74zm-79.38 -7.41l-14.46 -3.31 -11.15 6.98 25.61 -3.67zm17.78 0l-3.32 -3.31 -3.66 3.31 3.66 3.67 3.32 -3.67zm14.46 0l-6.98 -3.31 -3.74 3.31 7.41 3.67 3.31 -3.67zm-21.44 -3.31l-10.8 -3.74 -3.74 3.74 14.54 0zm64.84 0l-10.73 -3.74 -3.74 3.74 11.22 3.31 3.25 -3.31z"/>
  </g>
  <g id="_674377608">
   <path class="fil6" d="M6081.76 6262.22l0 -64.66 193.96 0 0 64.66 -64.64 0 0 64.66 -193.98 0 0 -64.66 64.66 0zm-258.63 0l64.66 0 0 64.66 -193.96 0 0 -64.66 -64.66 0 0 -64.66 193.96 0 0 64.66zm-323.28 -64.66l0 193.98 64.66 0 0 64.65 129.32 0 0 64.66 129.3 0 0 64.66 258.63 0 0 -64.66 129.32 0 0 -64.66 129.3 0 0 -64.65 64.66 0 0 -193.98 -64.66 0 0.38 -258.64 -65.02 0 0 64.66 -64.66 0.02 0 64.66 -64.66 0 0 64.66 -64.66 0 0 -64.66 -258.63 0 0 64.66 -64.66 0 0 -64.66 -64.64 0 0 -64.66 -64.64 -0.02 -0.02 -64.46 -64.66 0 0 258.44 -64.66 0z"/>
   <polygon class="fil6" points="5823.13,6779.47 5823.13,6973.45 5758.47,6973.45 5758.47,7038.1 5693.83,7038.1 5693.83,7167.42 5758.47,7167.42 5758.47,7232.08 5629.17,7232.08 5629.17,7296.72 5564.51,7296.72 5564.51,7361.38 5499.85,7361.38 5499.85,7426.04 6405.06,7426.04 6405.06,7361.38 6340.4,7361.38 6340.38,7296.72 6275.72,7296.72 6275.72,7232.08 6146.42,7232.08 6146.42,7167.42 6211.08,7167.42 6211.08,7038.1 6146.42,7038.1 6146.42,6973.45 6081.76,6973.45 6081.76,6779.47 6017.1,6779.47 6017.1,6650.17 5887.79,6650.17 5887.79,6779.47 "/>
   <path class="fil6" d="M5111.92 6068.26l0 64.66 -64.66 0 0 129.3 -64.66 0 0 129.32 64.66 0 0 129.31 64.66 0 0 64.66 129.3 0 0 64.66 129.32 0 0 64.66 129.31 0 0 -64.66 -64.66 0 0 -64.66 -64.65 0 0 -64.66 -64.66 0 0 -64.66 -64.66 0 0 -129.31 64.66 0 0 -64.66 64.66 0 0 -193.96 -64.66 0 0 -64.66 -129.32 0 0 64.66 -64.64 0zm452.59 646.57l-64.66 0 0 129.3 64.66 0 0 -129.3zm64.66 193.96l0 -64.66 -64.66 0 0 64.66 64.66 0z"/>
   <polygon class="fil6" points="5629.17,7038.1 5629.17,6973.45 5564.51,6973.45 5564.51,7038.1 "/>
  </g>
  <path class="fil0 str0" d="M7446.66 5331.92l1749.45 -0.59c206.19,-0.07 374.87,126.37 374.94,281.04l0.92 1937.09c0.07,154.67 -168.49,281.22 -374.69,281.29l-1749.44 0.59c-206.2,0.07 -374.88,-126.37 -374.95,-281.04l-0.91 -1937.09c-0.08,-154.67 168.48,-281.22 374.68,-281.29z"/>
  <path class="fil1" d="M7586.64 7548.42l0 88.02 -20.99 0 0 -22.05 -21.7 0 0 -22.05 -21.72 0 0 -21.87 -21.67 0 0 -22.05 -22.4 0 0 132.29 22.4 0 0 -88.02 20.99 0 0 22.05 21.7 0 0 22.05 21.72 0 0 21.87 21.67 0 0 22.05 22.46 0 0 -132.29 -22.46 0zm196.64 22.22l0 -22.22 -130.88 0 0 132.29 130.88 0 0 -22.22 -108.48 0 0 -43.75 86.79 0 0 -22.4 -86.79 0 0 -21.7 108.48 0zm152.55 21.7l0 -21.87 -21.7 0 0 -22.05 -87.49 0 0 132.29 87.49 0 0 -22.05 21.7 0 0 -21.87 21.69 0 0 -44.45 -21.69 0zm-0.71 44.1l-21.7 0 0 22.05 -64.38 0 0 -87.85 64.38 0 0 22.05 21.7 0 0 43.75zm174.95 -65.97l0 -22.05 -87.49 0 0 22.05 -21.7 0 0 88.19 21.7 0 0 22.05 87.49 0 0 -22.05 21.69 0 0 -88.19 -21.69 0zm-0.71 88.02l-86.08 0 0 -87.85 86.08 0 0 87.85zm174.95 -88.02l0 -22.05 -109.19 0 0 132.29 22.4 0 0 -43.92 86.79 0 0 -22.05 21.69 0 0 -44.27 -21.69 0zm-0.71 43.92l-86.08 0 0 -43.75 86.08 0 0 43.75zm196.64 -21.7l0 -22.22 -21.69 0 0 -22.05 -87.49 0 0 22.05 -21.7 0 0 88.19 21.7 0 0 22.05 87.49 0 0 -22.05 21.69 0 0 -22.22 -22.4 0 0 22.05 -86.08 0 0 -87.85 86.08 0 0 22.05 22.4 0zm86.75 43.75l0 44.27 44.1 0 0 -44.27 -44.1 0zm261.73 -43.75l0 -22.22 -21.69 0 0 -22.05 -87.49 0 0 22.05 -21.7 0 0 88.19 21.7 0 0 22.05 87.49 0 0 -22.05 21.69 0 0 -22.22 -22.4 0 0 22.05 -86.08 0 0 -87.85 86.08 0 0 22.05 22.4 0zm152.55 -22.22l0 -22.05 -87.49 0 0 22.05 -21.7 0 0 88.19 21.7 0 0 22.05 87.49 0 0 -22.05 21.69 0 0 -88.19 -21.69 0zm-0.71 88.02l-86.08 0 0 -87.85 86.08 0 0 87.85zm174.24 -110.07l0 22.05 -21.7 0 0 21.87 -42.68 0 0 -21.87 -21.7 0 0 -22.05 -22.4 0 0 132.29 22.4 0 0 -88.02 20.99 0 0 22.05 44.1 0 0 -22.05 20.99 0 0 88.02 22.46 0 0 -132.29 -22.46 0z"/>
  <g id="_674392664">
   <path class="fil2" d="M7594.07 5476.32l3.7 0c129.12,9.95 193.78,27.63 193.78,53.03 7.62,2.43 11.43,10.16 11.43,22.96l0 11.11 -18.94 15.24c0,16.94 -11.43,28.37 -34.4,34.4l-3.7 3.7 0 3.71 7.72 0 3.71 -3.71 3.81 0 0 3.71 -186.06 136.74 3.71 0 87.42 -7.41 0 3.7 -3.71 11.54 3.71 0 22.64 -3.81 19.27 0 3.7 3.81 3.7 -3.81 3.71 0c23.6,0 51.43,11.43 83.71,34.18l0 3.71c0,6.77 -17.78,11.85 -53.34,15.13l-3.7 -3.7 -277.18 45.61 0 -3.7 7.41 -11.54 -7.41 0 -34.4 7.51 -7.51 0 -11.43 -11.21 0 -7.73c0,-27.73 31.64,-50.48 94.93,-68.26l-3.81 -4.02 0 -3.71c28.58,-40.53 47.63,-60.75 57.05,-60.75l0 -7.41 -7.73 0 0 -4.02 129.33 -113.87c-86.25,-20.22 -148.27,-30.38 -186.06,-30.38l-7.72 0c-5.19,-1.16 -10.27,-7.62 -15.24,-19.15l45.61 -26.36 30.38 -4.02 0 4.02 3.7 -4.02 15.24 0 26.67 4.02 0 -4.02 -3.7 -11.22z"/>
   <path class="fil1" d="M7833.99 5448.38c8.89,9.53 26.24,14.29 52.07,14.29l0 4.66 4.65 -4.66 4.98 0 85.19 75.99c13.23,-28.79 36.94,-50.91 71.02,-66.68l42.86 -9.31c13.97,0 25.08,9.53 33.13,28.58l-33.13 42.44 0 4.97 4.66 0 14.18 -4.97 0 4.97 -52.07 71.01 0 4.66c60.01,69 89.96,119.59 89.96,151.55l4.97 4.98c0,46.14 -11.11,74.5 -33.23,85.3l-19.16 0c-7.51,-0.64 -18.52,-17.99 -33.23,-52.07l-9.31 0 4.66 4.66 0 18.83 -9.32 0 -66.67 -113.77 -4.66 0c-53.66,71.12 -80.54,115.36 -80.54,132.72l-23.6 4.97c-6.45,0 -9.63,-4.76 -9.63,-14.28l4.66 -18.84 -13.97 -28.58 47.52 -109.11 -14.29 9.63 -4.98 -4.66 38.1 -66.67 -109.11 -137.37 0 -18.95 14.29 -14.29zm436.25 229.77c1.69,0.42 2.54,1.27 2.54,2.54l-0.64 1.48 0.64 0.63 0.52 -0.63 0.64 0 2.86 0.63 12.7 -1.48c8.46,0 13.44,0.85 14.81,2.75 26.25,0 42.23,6.57 47.84,19.8 0,3.38 2.43,5.92 7.41,7.83l0 0.63c-0.42,5.72 -1.38,9 -2.75,9.53l-4.13 -0.53 -0.53 0.53 0.53 0.63 0 0.95 -1.8 0c-12.17,0 -34.18,2.65 -66.04,8.05l-13.33 -0.64 -15.56 2.23 0 -0.64 0.63 -0.63 0 -0.32 -1.27 0c-2.01,1.06 -8.99,1.8 -21.06,2.22 -1.59,1.16 -5.4,1.8 -11.11,1.8l-1.59 0c-4.97,0 -7.41,-3.6 -7.41,-10.8l-1.27 -5.29c0,-15.45 9,-28.25 26.99,-38.1l30.38 -3.17z"/>
   <path class="fil3" d="M8477.67 5416.53c0,22.54 20.95,33.76 62.97,33.76l67.63 0 0 4.97 -4.98 4.66 0 4.97 4.98 0 24.13 -4.97 4.65 4.97 0 14.5c0,22.97 -17.67,40.64 -53.02,53.03l-14.6 -4.87 -38.74 62.86 -4.66 -4.97 -4.97 33.86c9.74,0 14.6,3.29 14.6,9.85l58 0 38.74 33.86 0 4.66c0,4.34 -35.46,12.38 -106.37,24.13 0,6.46 -11.21,9.63 -33.76,9.63l4.66 4.98 0 4.97 -4.66 43.39 0 4.66 4.66 0c68.58,-8.89 110.6,-16.94 125.84,-24.24l9.63 14.61 -4.98 33.76 -19.15 -4.55c-8.47,0 -15.03,11.22 -19.58,33.76l-23.92 9.63 4.66 4.97 0 4.55 -140.13 24.24c-28.89,-34.71 -43.39,-58.95 -43.39,-72.6l19.26 -62.55 0 -4.97c-9.52,0 -14.29,-3.28 -14.29,-9.63l0 -19.27c13.66,-26.88 24.88,-67.09 33.77,-120.86 16.19,-28.78 24.23,-52.91 24.23,-72.6 -17.36,0 -35.14,-16.09 -53.34,-48.37l14.61 -9.63 52.91 9.63 0 -4.65c2.54,-16.09 7.41,-24.13 14.61,-24.13z"/>
   <path class="fil4" d="M8791.47 5495.27c53.97,4.55 80.96,10.16 80.96,17.04l-3.07 16.72 0 30.37c-8.47,85.41 -17.57,128.06 -27.31,128.06l-6.88 0 0 -6.45 -6.45 0 -50.59 155.04 6.56 16.72 -3.17 3.39c-23.71,-4.34 -47.42,-23.5 -70.91,-57.36 -22.12,-22.33 -39.05,-62.87 -50.59,-121.5 4.55,0 6.88,-5.5 6.88,-16.51l3.39 0 3.07 3.18 3.7 0 0 -3.18 -3.7 -20.42 3.7 -16.73c-9.1,-22.12 -13.65,-41.38 -13.65,-57.68l3.49 0c6.77,2.44 10.16,9.32 10.16,20.43l3.07 0 0 -13.65 -6.77 -20.11 3.7 -16.72 -3.7 -20.53 3.7 -3.07 3.07 0c49.42,106.04 74.19,170.07 74.19,192.19 4.55,0 7.94,30.37 10.16,90.91l3.49 0 23.5 -104.56 6.87 -6.78c-3.91,0 -8.46,-17.88 -13.65,-53.65l3.71 -20.43c-4.55,-42.76 -10.27,-64.24 -17.04,-64.24 5.92,-6.98 10.37,-20.43 13.33,-40.32 4.55,0 6.78,-3.39 6.78,-10.16z"/>
   <path class="fil5" d="M9081.98 5498.34l21.38 12.7 -4.34 13.01c69.11,58.95 103.61,93.46 103.61,103.62l0 25.71c0,61.6 -40.22,121.92 -120.65,181.08 -14.08,8.68 -32.81,13.02 -56.09,13.02l-21.7 0 -8.68 8.68c-64.98,0 -103.72,-44.56 -116.31,-133.67 0,-84.35 28.79,-150.49 86.25,-198.44l4.24 -4.33 4.44 0 4.34 4.33 0 4.34 -13.02 13.02c49.11,-28.68 88.06,-43.07 116.53,-43.07zm60.11 129.33l-25.72 -8.68c-34.5,0 -70.48,35.98 -107.84,107.84 -5.82,11.22 -8.68,26.99 -8.68,47.52 0,6.35 7.2,10.58 21.7,12.7 60.53,0 103.71,-41.7 129.54,-124.99l0 -47.41c-5.93,0 -9,4.34 -9,13.02z"/>
  </g>
  <g id="_674391656">
   <path class="fil6" d="M8581.76 6261.05l0 -64.66 193.96 0 0 64.66 -64.64 0 0 64.66 -193.98 0 0 -64.66 64.66 0zm-258.63 0l64.66 0 0 64.66 -193.96 0 0 -64.66 -64.66 0 0 -64.66 193.96 0 0 64.66zm-323.28 -64.66l0 193.98 64.66 0 0 64.65 129.32 0 0 64.66 129.3 0 0 64.66 258.63 0 0 -64.66 129.32 0 0 -64.66 129.3 0 0 -64.65 64.66 0 0 -193.98 -64.66 0 0.38 -258.64 -65.02 0 0 64.66 -64.66 0.02 0 64.66 -64.66 0 0 64.66 -64.66 0 0 -64.66 -258.63 0 0 64.66 -64.66 0 0 -64.66 -64.64 0 0 -64.66 -64.64 -0.02 -0.02 -64.46 -64.66 0 0 258.44 -64.66 0z"/>
   <polygon class="fil6" points="8323.13,6778.3 8323.13,6972.28 8258.47,6972.28 8258.47,7036.93 8193.83,7036.93 8193.83,7166.25 8258.47,7166.25 8258.47,7230.91 8129.17,7230.91 8129.17,7295.55 8064.51,7295.55 8064.51,7360.21 7999.85,7360.21 7999.85,7424.87 8905.06,7424.87 8905.06,7360.21 8840.4,7360.21 8840.38,7295.55 8775.72,7295.55 8775.72,7230.91 8646.42,7230.91 8646.42,7166.25 8711.08,7166.25 8711.08,7036.93 8646.42,7036.93 8646.42,6972.28 8581.76,6972.28 8581.76,6778.3 8517.1,6778.3 8517.1,6649 8387.79,6649 8387.79,6778.3 "/>
   <path class="fil6" d="M7611.92 6067.09l0 64.66 -64.66 0 0 129.3 -64.66 0 0 129.32 64.66 0 0 129.31 64.66 0 0 64.66 129.3 0 0 64.66 129.32 0 0 64.66 129.31 0 0 -64.66 -64.66 0 0 -64.66 -64.65 0 0 -64.66 -64.66 0 0 -64.66 -64.66 0 0 -129.31 64.66 0 0 -64.66 64.66 0 0 -193.96 -64.66 0 0 -64.66 -129.32 0 0 64.66 -64.64 0zm452.59 646.57l-64.66 0 0 129.3 64.66 0 0 -129.3zm64.66 193.96l0 -64.66 -64.66 0 0 64.66 64.66 0z"/>
   <polygon class="fil6" points="8129.17,7036.93 8129.17,6972.28 8064.51,6972.28 8064.51,7036.93 "/>
  </g>
  <path class="fil0 str0" d="M4946.66 2833.09l1749.45 -0.59c206.19,-0.07 374.87,126.37 374.94,281.04l0.92 1937.09c0.07,154.67 -168.49,281.22 -374.69,281.29l-1749.44 0.59c-206.2,0.07 -374.88,-126.37 -374.95,-281.04l-0.91 -1937.09c-0.08,-154.67 168.48,-281.22 374.68,-281.29z"/>
  <path class="fil1" d="M5086.64 5049.59l0 88.02 -20.99 0 0 -22.05 -21.7 0 0 -22.05 -21.72 0 0 -21.87 -21.67 0 0 -22.05 -22.4 0 0 132.29 22.4 0 0 -88.02 20.99 0 0 22.05 21.7 0 0 22.05 21.72 0 0 21.87 21.67 0 0 22.05 22.46 0 0 -132.29 -22.46 0zm196.64 22.22l0 -22.22 -130.88 0 0 132.29 130.88 0 0 -22.22 -108.48 0 0 -43.75 86.79 0 0 -22.4 -86.79 0 0 -21.7 108.48 0zm152.55 21.7l0 -21.87 -21.7 0 0 -22.05 -87.49 0 0 132.29 87.49 0 0 -22.05 21.7 0 0 -21.87 21.69 0 0 -44.45 -21.69 0zm-0.71 44.1l-21.7 0 0 22.05 -64.38 0 0 -87.85 64.38 0 0 22.05 21.7 0 0 43.75zm174.95 -65.97l0 -22.05 -87.49 0 0 22.05 -21.7 0 0 88.19 21.7 0 0 22.05 87.49 0 0 -22.05 21.69 0 0 -88.19 -21.69 0zm-0.71 88.02l-86.08 0 0 -87.85 86.08 0 0 87.85zm174.95 -88.02l0 -22.05 -109.19 0 0 132.29 22.4 0 0 -43.92 86.79 0 0 -22.05 21.69 0 0 -44.27 -21.69 0zm-0.71 43.92l-86.08 0 0 -43.75 86.08 0 0 43.75zm196.64 -21.7l0 -22.22 -21.69 0 0 -22.05 -87.49 0 0 22.05 -21.7 0 0 88.19 21.7 0 0 22.05 87.49 0 0 -22.05 21.69 0 0 -22.22 -22.4 0 0 22.05 -86.08 0 0 -87.85 86.08 0 0 22.05 22.4 0zm86.75 43.75l0 44.27 44.1 0 0 -44.27 -44.1 0zm261.73 -43.75l0 -22.22 -21.69 0 0 -22.05 -87.49 0 0 22.05 -21.7 0 0 88.19 21.7 0 0 22.05 87.49 0 0 -22.05 21.69 0 0 -22.22 -22.4 0 0 22.05 -86.08 0 0 -87.85 86.08 0 0 22.05 22.4 0zm152.55 -22.22l0 -22.05 -87.49 0 0 22.05 -21.7 0 0 88.19 21.7 0 0 22.05 87.49 0 0 -22.05 21.69 0 0 -88.19 -21.69 0zm-0.71 88.02l-86.08 0 0 -87.85 86.08 0 0 87.85zm174.24 -110.07l0 22.05 -21.7 0 0 21.87 -42.68 0 0 -21.87 -21.7 0 0 -22.05 -22.4 0 0 132.29 22.4 0 0 -88.02 20.99 0 0 22.05 44.1 0 0 -22.05 20.99 0 0 88.02 22.46 0 0 -132.29 -22.46 0z"/>
  <g id="_674184200">
   <path class="fil2" d="M5283.78 2955.79c1.27,7.62 1.9,11.86 1.9,12.7 0.42,3.39 0.64,7.84 0.64,13.34 0,23.28 -5.72,39.79 -17.15,49.53 -4.66,4.23 -11.54,7.2 -20.64,8.89 -9.1,1.69 -15.77,4.44 -20,8.25l-23.49 21.59c-21.59,19.48 -52.71,46.15 -93.35,80.01 -44.03,36.41 -72.6,60.75 -85.72,73.03 -10.16,13.12 -20.11,26.03 -29.85,38.73 21.17,16.09 37.04,27.1 47.63,33.02 16.51,9.32 34.71,15.67 54.61,19.05 7.19,1.27 14.81,1.91 22.86,1.91 16.93,0 35.66,-2.65 56.19,-7.94 20.53,-5.29 40.11,-12.59 58.74,-21.91l45.09 16.51c-37.68,24.98 -84.46,45.51 -140.34,61.6 -46.99,13.55 -85.51,20.32 -115.57,20.32 -5.08,0 -10.16,-0.42 -15.24,-1.27 -35.98,-8.89 -66.15,-24.98 -90.49,-48.26 -24.34,-23.28 -40.53,-50.8 -48.57,-82.55 -3.81,-14.39 10.79,-39.79 43.81,-76.2 25.82,-28.79 59.27,-60.54 100.33,-95.25 5.5,-4.23 15.66,-11.22 30.48,-20.96 22.86,-14.81 33.87,-23.49 33.02,-26.03 -2.12,-4.66 -19.05,-8.57 -50.8,-11.75 -31.75,-3.17 -66.89,-4.76 -105.41,-4.76l-40 -61.6c21.59,-11 65.61,-18.62 132.08,-22.86 22.01,-1.27 53.12,-2.32 93.34,-3.17 2.12,-6.35 4.02,-10.8 5.72,-13.34 1.69,-2.54 5.29,-4.23 10.79,-5.08 7.2,-1.27 17.67,0.11 31.43,4.13 13.76,4.02 22.97,9.63 27.63,16.83 8.04,-1.27 26.14,1.48 54.29,8.25 28.15,6.78 43.5,11.86 46.04,15.24z"/>
   <path class="fil1" d="M5695.26 3316.47c-16.94,14.4 -33.87,28.58 -50.8,42.55 -19.48,14.39 -36.41,21.59 -50.8,21.59 -23.29,0 -43.82,-9.74 -61.6,-29.21 -11.43,-12.7 -24.76,-33.87 -40,-63.5 -30.48,13.97 -60.75,27.94 -90.81,41.91 -14.82,5.08 -29.42,9.95 -43.81,14.6 -13.97,5.93 -26.25,16.52 -36.83,31.76 -3.39,-10.16 -5.08,-19.48 -5.08,-27.95 0,-5.6 0.95,-12.48 2.85,-20.74 1.91,-8.25 4.77,-14.92 8.58,-20 0.42,-0.85 9.31,-9.53 26.67,-26.14 16.08,-22.44 30.9,-40.64 44.45,-54.61 16.08,-17.04 30.48,-28.26 43.18,-33.76 -9.74,-20.32 -19.48,-41.17 -29.21,-62.34 -9.74,-21.17 -17.78,-42.44 -24.13,-63.6 -9.74,-32.18 -16.51,-57.9 -20.32,-76.95 -5.08,-25.92 -7.62,-52.59 -7.62,-80.22 12.27,1.8 21.59,3.5 27.94,5.19 19.89,5.08 32.17,11.85 36.83,20.32l67.31 204.57c15.24,-11 33.65,-30.26 55.24,-57.78 24.98,-31.33 45.09,-63.08 60.33,-95.25 5.08,-10.58 11.64,-26.67 19.68,-48.26 2.54,-7.2 5.93,-15.66 10.16,-25.4l30.48 18.41c0,15.24 0.21,29.64 0.64,43.18 0.42,13.55 0.84,26.89 1.27,40.01 0,19.47 -1.17,36.83 -3.5,52.07 -2.33,15.24 -7.3,32.6 -14.92,52.07 -11.85,30.06 -24.98,54.72 -39.37,73.98 -14.39,19.26 -35.14,40.32 -62.23,63.18 18.63,30.9 32.28,50.16 40.96,57.78 8.68,7.62 18.94,11.43 30.8,11.43 12.27,0 24.34,-3.7 36.19,-11.11 11.85,-7.41 23.92,-14.92 36.2,-22.54l1.27 24.76zm194.95 -146.68c4.23,4.23 6.35,9.52 6.35,15.87 0,5.93 -1.91,13.02 -5.72,21.07 -1.27,2.54 -3.17,5.92 -5.71,10.16 -29.21,5.92 -58.74,11.95 -88.59,18.09 -29.84,6.14 -53.02,13.87 -69.53,23.18 2.12,-9.31 4.55,-20.21 7.3,-32.6 2.75,-12.38 5.61,-27.09 8.58,-44.13 0,-3.91 0,-7.94 0,-12.17 14.39,-3.49 25.4,-5.71 33.02,-6.77 7.62,-1.06 17.78,-1.59 30.48,-1.59 5.5,0 10.9,0 16.19,0 5.29,0 10.48,0 15.56,0 10.16,0 17.99,0.42 23.49,1.27 5.5,0.85 15.03,3.39 28.58,7.62z"/>
   <path class="fil3" d="M6251.52 2940.55l-22.22 56.52c-13.97,2.12 -27.73,4.44 -41.28,6.98 -6.35,1.27 -20.11,4.24 -41.27,8.89 -9.74,1.7 -19.58,3.92 -29.53,6.67 -9.95,2.75 -19.79,5.4 -29.53,7.94l-45.72 87.63c17.78,-2.96 37.47,-4.45 59.06,-4.45 37.67,0 77.04,8.05 118.11,24.13l-11.43 43.82c-27.52,5.5 -67.31,19.47 -119.38,41.91 -57.58,24.98 -86.36,42.76 -86.36,53.34 0,2.12 1.05,3.81 3.17,5.08 13.55,7.62 27.31,13.44 41.28,17.46 13.97,4.02 26.45,6.03 37.46,6.03 14.39,0 29,-2.54 43.82,-7.62 10.16,-3.38 33.23,-14.6 69.21,-33.65 -8.89,19.05 -17.14,30.27 -24.76,33.65 -3.39,1.7 -6.14,5.08 -8.26,10.16l-8.25 28.58c-22.86,8.89 -47.1,17.89 -72.71,26.99 -25.61,9.1 -46.89,13.65 -63.82,13.65 -8.47,0 -15.77,-0.74 -21.91,-2.22 -6.14,-1.48 -12.17,-4.02 -18.09,-7.62 -5.93,-3.6 -10.59,-8.15 -13.97,-13.66 -3.39,-5.5 -6.78,-12.7 -10.16,-21.59l-28.58 15.24c-3.39,-30.48 -5.08,-60.74 -5.08,-90.8 0,-33.02 3.28,-72.18 9.84,-117.48 6.56,-45.29 12.17,-76.83 16.83,-94.61 7.62,-30.06 19.47,-60.75 35.56,-92.08 20.74,-10.16 39.16,-17.56 55.25,-22.22 16.08,-4.66 36.83,-8.89 62.23,-12.7 11.85,-1.69 24.02,-3.18 36.51,-4.45 12.49,-1.27 23.6,-1.9 33.34,-1.9 16.51,0 30.69,0.85 42.54,2.54 11.85,1.69 20.96,2.96 27.31,3.81l10.79 26.03z"/>
   <path class="fil4" d="M6552.52 3097.29l-84.46 193.15 -130.17 92.08 -20.32 -8.89c11,-13.97 18.2,-23.29 21.59,-27.95 6.77,-9.73 10.16,-16.93 10.16,-21.59 0,-2.96 -1.06,-5.08 -3.18,-6.35 -1.69,0.43 -4.02,0.96 -6.98,1.59 -2.97,0.64 -10.16,3.07 -21.59,7.3 -7.62,-20.32 -13.55,-38.41 -17.78,-54.29 -4.24,-15.87 -8.15,-36.62 -11.75,-62.23 -3.6,-25.61 -5.4,-48.79 -5.4,-69.53 0,-21.17 1.91,-46.14 5.72,-74.93l108.58 23.49c-2.12,22.44 -3.17,45.51 -3.17,69.22 0,10.58 0.21,19.79 0.63,27.62 0.42,7.83 1.91,22.54 4.45,44.13l132.08 -226.9 21.59 94.08z"/>
   <path class="fil5" d="M6791.92 3122.8c2.54,5.93 3.81,12.7 3.81,20.32 0,31.33 -16.94,73.66 -50.8,127 -32.18,50.8 -55.46,77.05 -69.85,78.74 -5.08,2.96 -9.32,5.08 -12.7,6.35 -10.16,4.23 -20.11,6.35 -29.85,6.35 -5.93,0 -10.16,-0.21 -12.7,-0.63 -1.27,-0.43 -4.02,-1.49 -8.25,-3.18 -8.05,-3.39 -13.87,-12.28 -17.47,-26.67 -3.6,-14.39 -5.39,-33.02 -5.39,-55.88 0,-19.9 0.95,-39.69 2.85,-59.37 1.91,-19.69 4.98,-40.11 9.21,-61.28l-13.33 -17.15c8.89,-15.66 24.13,-32.49 45.72,-50.48 21.59,-17.99 35.77,-26.99 42.54,-26.99 6.77,-1.27 24.55,4.24 53.34,16.51 33.87,14.4 54.82,29.85 62.87,46.36zm-79.38 90.8c-9.31,-9.73 -16.93,-17.14 -22.86,-22.22 -18.2,-15.66 -34.92,-25.61 -50.16,-29.85 -2.54,11.01 -4.34,20.11 -5.4,27.31 -1.06,7.2 -1.59,14.39 -1.59,21.59 0,10.58 1.38,19.26 4.13,26.03 2.75,6.78 7.51,11.01 14.29,12.7 1.69,0.43 4.02,0.64 6.98,0.64 8.89,0 17.99,-2.96 27.31,-8.89 9.31,-5.93 18.41,-15.03 27.3,-27.31z"/>
  </g>
  <g id="_673595144">
   <path class="fil6" d="M6081.76 3762.22l0 -64.66 193.96 0 0 64.66 -64.64 0 0 64.66 -193.98 0 0 -64.66 64.66 0zm-258.63 0l64.66 0 0 64.66 -193.96 0 0 -64.66 -64.66 0 0 -64.66 193.96 0 0 64.66zm-323.28 -64.66l0 193.98 64.66 0 0 64.65 129.32 0 0 64.66 129.3 0 0 64.66 258.63 0 0 -64.66 129.32 0 0 -64.66 129.3 0 0 -64.65 64.66 0 0 -193.98 -64.66 0 0.38 -258.64 -65.02 0 0 64.66 -64.66 0.02 0 64.66 -64.66 0 0 64.66 -64.66 0 0 -64.66 -258.63 0 0 64.66 -64.66 0 0 -64.66 -64.64 0 0 -64.66 -64.64 -0.02 -0.02 -64.46 -64.66 0 0 258.44 -64.66 0z"/>
   <polygon class="fil6" points="5823.13,4279.47 5823.13,4473.45 5758.47,4473.45 5758.47,4538.1 5693.83,4538.1 5693.83,4667.42 5758.47,4667.42 5758.47,4732.08 5629.17,4732.08 5629.17,4796.72 5564.51,4796.72 5564.51,4861.38 5499.85,4861.38 5499.85,4926.04 6405.06,4926.04 6405.06,4861.38 6340.4,4861.38 6340.38,4796.72 6275.72,4796.72 6275.72,4732.08 6146.42,4732.08 6146.42,4667.42 6211.08,4667.42 6211.08,4538.1 6146.42,4538.1 6146.42,4473.45 6081.76,4473.45 6081.76,4279.47 6017.1,4279.47 6017.1,4150.17 5887.79,4150.17 5887.79,4279.47 "/>
   <path class="fil6" d="M5111.92 3568.26l0 64.66 -64.66 0 0 129.3 -64.66 0 0 129.32 64.66 0 0 129.31 64.66 0 0 64.66 129.3 0 0 64.66 129.32 0 0 64.66 129.31 0 0 -64.66 -64.66 0 0 -64.66 -64.65 0 0 -64.66 -64.66 0 0 -64.66 -64.66 0 0 -129.31 64.66 0 0 -64.66 64.66 0 0 -193.96 -64.66 0 0 -64.66 -129.32 0 0 64.66 -64.64 0zm452.59 646.57l-64.66 0 0 129.3 64.66 0 0 -129.3zm64.66 193.96l0 -64.66 -64.66 0 0 64.66 64.66 0z"/>
   <polygon class="fil6" points="5629.17,4538.1 5629.17,4473.45 5564.51,4473.45 5564.51,4538.1 "/>
  </g>
 </g>
</svg>
